<?xml version="1.0" encoding="utf-8"?>
<!-- Generator: Adobe Illustrator 27.4.1, SVG Export Plug-In . SVG Version: 6.00 Build 0)  -->
<svg version="1.1"
	 id="svg2" xmlns:dc="http://purl.org/dc/elements/1.1/" xmlns:inkscape="http://www.inkscape.org/namespaces/inkscape" xmlns:rdf="http://www.w3.org/1999/02/22-rdf-syntax-ns#" xmlns:svg="http://www.w3.org/2000/svg" xmlns:cc="http://creativecommons.org/ns#" xmlns:sodipodi="http://sodipodi.sourceforge.net/DTD/sodipodi-0.dtd" inkscape:version="0.91 r13725"
	 xmlns="http://www.w3.org/2000/svg" xmlns:xlink="http://www.w3.org/1999/xlink" x="0px" y="0px" viewBox="0 0 932.3 155.6"
	 style="enable-background:new 0 0 932.3 155.6;" xml:space="preserve">
<style type="text/css">
	.st0{fill:#141414;}
	.st1{clip-path:url(#SVGID_00000179614890834535297360000008173226514958018438_);}
</style>
<sodipodi:namedview  bordercolor="#666666" borderopacity="1" fit-margin-bottom="0" fit-margin-left="0" fit-margin-right="0" fit-margin-top="0" gridtolerance="10" guidetolerance="10" id="namedview4" inkscape:current-layer="g10" inkscape:cx="466.16788" inkscape:cy="77.817875" inkscape:pageopacity="0" inkscape:pageshadow="2" inkscape:window-height="998" inkscape:window-maximized="0" inkscape:window-width="1631" inkscape:window-x="49" inkscape:window-y="24" inkscape:zoom="0.34747475" objecttolerance="10" pagecolor="#ffffff" showgrid="false">
	</sodipodi:namedview>
<g id="g10" transform="matrix(1.25,0,0,-1.25,-28.832125,193.4425)" inkscape:groupmode="layer" inkscape:label="logo_atarist">
	<g id="g4182">
		<path id="path12" inkscape:connector-curvature="0" class="st0" d="M85.8,154.8h14.5V31.5H85.8V154.8z"/>
		<g id="g14">
			<g>
				<defs>
					<rect id="SVGID_1_" x="-99" y="-23.1" width="990" height="231.2"/>
				</defs>
				<clipPath id="SVGID_00000063623952518718903430000013650176082390414014_">
					<use xlink:href="#SVGID_1_"  style="overflow:visible;"/>
				</clipPath>
				<g id="g16" style="clip-path:url(#SVGID_00000063623952518718903430000013650176082390414014_);">
					<g id="g22" transform="translate(23.0657,31.2205)">
						<path id="path24" inkscape:connector-curvature="0" class="st0" d="M0,0l2.4,0C33.2,0.8,58,31.9,58,70.1v53.2h-9.7V87.1
							c0-35.2-21-64.3-48.3-69.4V0z"/>
					</g>
					<g id="g26" transform="translate(163.2498,31.2205)">
						<path id="path28" inkscape:connector-curvature="0" class="st0" d="M0,0l-2.4,0C-33.2,0.8-58,31.9-58,70.1v53.2h9.7V87.1
							c0-35.2,21-64.3,48.3-69.4V0z"/>
					</g>
					<g id="g30" transform="translate(284.218,30.8397)">
						<path id="path32" inkscape:connector-curvature="0" class="st0" d="M0,0h-27.2l-6.7,23.3h-36.6L-77.6,0h-27.2l33.9,108.5
							c1.3,4.2,3.4,7.7,6.3,10.5c3.4,3.2,7.3,4.7,11.6,4.7c4.8,0,9.2-1.7,13.1-5.1c3.4-3,5.8-6.9,7.3-11.6L0,0z M-41.2,45.9
							l-10.9,53l-12-53C-64,45.9-41.2,45.9-41.2,45.9z"/>
					</g>
					<g id="g34" transform="translate(346.4514,130.7507)">
						<path id="path36" inkscape:connector-curvature="0" class="st0" d="M0,0h-23.7v-100.5h-26.7V0h-23.9v23.1H0V0z"/>
					</g>
					<g id="g38" transform="translate(439.8464,30.8397)">
						<path id="path40" inkscape:connector-curvature="0" class="st0" d="M0,0h-27.2l-6.7,23.3h-36.6L-77.6,0h-27.2l33.9,108.5
							c1.3,4.2,3.4,7.7,6.4,10.5c3.4,3.2,7.3,4.7,11.6,4.7c4.8,0,9.2-1.7,13.1-5.1c3.4-3,5.8-6.9,7.3-11.6L0,0z M-41.2,45.9
							l-10.9,53l-12-53C-64,45.9-41.2,45.9-41.2,45.9z"/>
					</g>
					<g id="g42" transform="translate(533.2468,30.5018)">
						<path id="path44" inkscape:connector-curvature="0" class="st0" d="M0,0h-30.8l-27.3,50.2c-1.2,2.3-2.2,4.4-3,6.3
							c-0.8,1.9-1.2,3.3-1.2,4.4c0,5.4,4.3,9.8,13,13.2c8.6,3.5,13,7.7,13,12.9c0,3.2-1.2,6.3-3.7,9.3c-2.5,3-5.2,4.6-8.1,4.6h-15.2
							V0.3h-25.7v107.2c0,3.7,1.8,7.4,5.3,10.9c3.5,3.5,7,5.3,10.5,5.3h25.9c10,0,18.8-3.5,26.3-10.5c7.5-7,11.2-15.1,11.2-24.4
							c0-7.4-2.3-13.8-6.9-19.3c-4-4.8-9.7-8.9-17.2-12.3L0,0z"/>
					</g>
					<path id="path46" inkscape:connector-curvature="0" class="st0" d="M563.5,30.3h-26.8v123.8h26.8
						C563.5,154.1,563.5,30.3,563.5,30.3z"/>
					<g id="g48" transform="translate(680.6414,68.5701)">
						<path id="path50" inkscape:connector-curvature="0" class="st0" d="M0,0c0-12-4.8-21.2-14.3-27.7c-8.4-5.7-19-8.5-31.9-8.5
							c-6.1,0-12,0.5-17.9,1.6c-5.9,1.1-12.2,2.8-19.2,5.1v27.8c7.1-2,8.8-3.7,12.6-4.9c8.6-2.4,15.3-3.6,20.1-3.6
							c6.4,0,10.9,1.1,13.6,3.2c2.7,2.1,4.1,0.7,4.1,3.8c0,4-4.8,7.5-14.5,10.7c-13.9,4.1-18.8,7.2-22.3,9.4
							C-80,23.2-85.2,36.8-85.2,49.6c0,10.2,4.4,18.8,13.2,25.8c8.8,7,19.9,10.5,33.3,10.5c6.5,0,12.3-0.4,17.3-1.1
							c5.1-0.7,10.6-2.4,16.5-4.9V52c-6.5,2.9-8.3,5.1-13.1,6.6c-4.7,1.5-9.5,2.3-14.2,2.3c-4.5,0-8.5-1-12.1-3.1
							c-3.6-2.1-5.4-4.9-5.4-8.4c0-5.1,4.1-8.8,12.4-11.2c15.2-4.4,20.1-7.3,22.3-8.8C-5,23.3,0,13.5,0,0"/>
					</g>
					<g id="g52" transform="translate(768.9343,122.1199)">
						<path id="path54" inkscape:connector-curvature="0" class="st0" d="M0,0l-24.7,0v-91.3h-37V0h-24.7v28.3H0L0,0z"/>
					</g>
				</g>
			</g>
		</g>
	</g>
</g>
</svg>
