<?xml version="1.0" encoding="utf-8"?>
<!-- Generator: Adobe Illustrator 27.4.1, SVG Export Plug-In . SVG Version: 6.00 Build 0)  -->
<svg version="1.1" id="Layer_1" xmlns:svg="http://www.w3.org/2000/svg"
	 xmlns="http://www.w3.org/2000/svg" xmlns:xlink="http://www.w3.org/1999/xlink" x="0px" y="0px" viewBox="0 0 568.9 116.1"
	 style="enable-background:new 0 0 568.9 116.1;" xml:space="preserve">
<style type="text/css">
	.st0{fill:#363639;}
	.st1{fill:#BA2025;}
	.st2{fill:#141414;}
</style>
<path class="st0" d="M487.1,108.8c-15.8,0-31.1-2.5-38.5-4.1l0,0c-3.8-0.8-7.4-2.1-10.2-5l0,0c-2.8-2.9-4.8-7.2-5.8-13.6l0,0
	c-1.1-6.5-1.7-19-1.7-31.3l0,0c0-11.7,0.5-22.9,2-28.7l0,0c0.7-3,2-5.7,4.2-8l0,0c2.1-2.3,5.1-4.2,9-5.6l0,0
	c7.9-2.8,19.9-4.1,38.8-4.1l0,0h26c14.2,0,24.5,0.7,32.1,2.3l0,0c7.6,1.5,12.6,3.9,15.8,7.4l0,0c2.1,2.3,3.4,5.1,4.2,8l0,0
	c1.4,5.8,2,17,2,28.7l0,0c0,12.3-0.6,24.8-1.7,31.3l0,0c-1,6.4-3,10.7-5.8,13.6l0,0c-2.8,2.9-6.4,4.2-10.2,5l0,0
	c-7.4,1.5-22.7,4.1-38.5,4.1l0,0v-1.9v-1.9c15.4,0,30.6-2.5,37.8-4l0,0c3.5-0.7,6.2-1.8,8.3-4l0,0c2.1-2.2,3.8-5.6,4.8-11.6l0,0
	c1-6.1,1.6-18.6,1.6-30.7l0,0c0-11.5-0.6-22.8-1.9-27.7l0,0c-0.6-2.5-1.6-4.6-3.3-6.4l0,0c-1.6-1.8-4-3.3-7.6-4.6l0,0
	c-7.1-2.6-18.8-3.9-37.5-3.9l0,0h-26c-14,0-24.1,0.7-31.3,2.2l0,0c-7.2,1.5-11.3,3.6-13.8,6.3l0,0c-1.6,1.8-2.6,3.8-3.3,6.4l0,0
	c-1.3,5-1.9,16.3-1.9,27.7l0,0c0,12.1,0.6,24.6,1.6,30.7l0,0c1,5.9,2.7,9.4,4.8,11.6l0,0c2.1,2.2,4.8,3.2,8.3,4l0,0
	c7.2,1.5,22.3,4,37.8,4l0,0h21.5v1.9v1.9H487.1L487.1,108.8z"/>
<polygon class="st1" points="475.3,19.2 475.3,98.2 494,98.2 494,68.2 520.4,68.2 520.4,51.6 494,51.6 494,35.9 520.1,35.9 
	520.1,19.1 "/>
<g>
	<g>
		<path class="st2" d="M124.6,85.7V22.5h-18.1v27.8H84.7V22.5H65.9v73h18.8V67.6h22.6v27.8h32.4c7.9-15,8-15.6,15.1-27.8
			c5.2,0.1,9.8-0.1,14.3,0v27.8h18.8v-73h-28.6C146.9,42.8,137,65.5,124.6,85.7z M166.9,40.1h2.3v9.8h-6
			C164.5,46.7,165.7,44.1,166.9,40.1z M4.9,54.8l-0.2,4.4l0.2,4.6C8.2,87.6,31.5,103.3,58.3,94V71.4c-3.8,2.9-7.9,7.4-15.8,7.5
			c-27.4,0.3-23.6-38.1-0.8-38.4c8.2-0.1,11.3,2.8,16.6,8.3V25.5C32.9,14.5,7.7,31.2,4.9,54.8z M238.2,60.1
			c-10.5-13.8-17.9-24.6-28.6-37.6h-15.8v73h18.8V58.6c11,10.8,17.6,26.1,28.6,36.9H257v-73h-18.8L238.2,60.1L238.2,60.1z M397,79.7
			V22.5h-18.8v73h39.9V79.7H397z M331.5,95.5h41.4V78.9h-21.8V68.4h21.8V50.3h-21.8V39.8h21.8V22.5h-41.4L331.5,95.5L331.5,95.5z
			 M306.7,60.1c-11.4-14.3-17.5-23.3-28.6-37.6h-15.8v73h18.8V58.6c11,12.8,17.6,23.7,28.6,36.9h15.8v-73h-18.8V60.1z"/>
	</g>
</g>
</svg>
