<?xml version="1.0" encoding="utf-8"?>
<!-- Generator: Adobe Illustrator 27.4.1, SVG Export Plug-In . SVG Version: 6.00 Build 0)  -->
<svg version="1.1" id="图层_1" xmlns="http://www.w3.org/2000/svg" xmlns:xlink="http://www.w3.org/1999/xlink" x="0px" y="0px"
	 viewBox="0 0 655.7 153" style="enable-background:new 0 0 655.7 153;" xml:space="preserve">
<style type="text/css">
	.st0{fill:#363636;}
	.st1{fill-rule:evenodd;clip-rule:evenodd;fill:#363636;}
</style>
<path class="st0" d="M477.6,0.2c-0.7,0-1.1,0.6-1.1,1.4l-0.1,14.8c0,0.7,0.6,1.1,1.4,1.1l6.8-0.1c0.8,0,1.4-0.4,1.4-1.1v-2.7
	c0-0.7-0.6-1.1-1.4-1.1h-4.4c-0.8,0-1.4-0.4-1.4-1.1V1.5C478.7,0.8,478.4,0.2,477.6,0.2L477.6,0.2z M510.9,0.2h-0.3
	c-0.6,0.1-0.9,0.7-0.9,1.3l-0.2,14.8c0,0.5,0.2,0.8,0.6,0.9c0.1,0,0.2,0.1,0.2,0.1c0.1,0,0.2,0,0.3,0.1h0.3l6.8-0.1
	c0.8,0,1.4-0.4,1.4-1.1v-2.7c0-0.7-0.6-1.1-1.4-1.1h-4.4c-0.8,0-1.4-0.4-1.4-1.1V1.5C512,0.8,511.6,0.2,510.9,0.2z M404.5,0.2
	c-0.8,0-1.4,0.4-1.4,1.1l0.1,2.2V16c0,0.8,0.4,1.4,1.1,1.4h0.2c0.6-0.1,0.9-0.7,0.9-1.4V6.2c0-0.7,0.6-1.1,1.4-1.1h0.9
	c0.8,0,1.4,0.4,1.4,1.1l0.9,5.2c0,0.8,0.4,1.4,1.1,1.4h2.7c0.6-0.1,0.9-0.6,1.2-1.3c0,0,2.8-6.7,2.9-6.9c0.3-0.5,0.9-0.5,0.9,0.1
	v11.4c0,0.8,0.4,1.4,1.1,1.4h3c0.1,0,0.1,0,0.2-0.1c0.4-0.2,0.5-0.6,0.9-1.3l2.1-4.6c0.3-0.7,0.8-1.1,1.4-1.1h3.5
	c0.8,0,1.4,0.4,1.4,1.1l0.2,4.9c0,0.5,0.2,0.8,0.6,0.9c0.1,0.1,0.3,0.1,0.4,0.1c0.6,0.1,1.5,0.1,2.1,0.1s1.6-0.4,1.6-1.1V1.3
	c0-0.7-0.6-1.1-1.4-1.1h-7.3c-0.8,0-1.2,0.4-1.4,1.1c0,0-4.8,12.2-4.9,12.5c0,0,0,0.1-0.1,0.1c-0.1,0.1-0.2,0.1-0.3,0.1
	c-0.3,0.1-0.6,0-0.6-0.4V1.7c0-0.8-0.3-1.5-1-1.5h-2.6c-0.7,0-1,0.5-1.5,1.4c0,0-3.1,7.5-3.2,7.9c0,0.1-0.1,0.2-0.2,0.2
	c-0.1,0.1-0.2,0.1-0.2,0.1c-0.2,0-0.3-0.1-0.4-0.3c-0.1-0.5-1.5-8.2-1.5-8.2c0-0.7-0.6-1.1-1.4-1.1L404.5,0.2L404.5,0.2z M538.5,0.2
	c-0.8,0-1.4,0.4-1.4,1.1l-0.1,15c0,0.3,0.1,0.5,0.2,0.7s0.3,0.3,0.6,0.4c0.1,0,0.2,0,0.3,0.1h8.6c0.1,0,0.2,0,0.3-0.1
	c0.5-0.1,0.8-0.5,0.8-1c0-0.7-0.6-1.1-1.4-1.1h-5.7c-0.7,0-1.3-0.4-1.3-1.1l0.1-7.9c0-0.7,0.6-1.1,1.4-1.1h5.6
	c0.8,0,1.4-0.4,1.4-1.1V1.4c0-0.7-0.6-1.1-1.4-1.1L538.5,0.2L538.5,0.2z M563,0.2h-0.3c-0.6,0.1-1.1,0.5-1.1,1.1v1.1
	c0,4.3-0.1,8.5-0.1,12.8c0,0.3,0,0.5-0.1,0.8v0.4c0,0.1,0.1,0.3,0.1,0.4c0.2,0.3,0.4,0.5,0.7,0.6s0.6,0.1,0.9,0.1h1.4
	c0.2,0,0.3,0,0.4-0.1c0.6-0.1,1-0.4,1.3-1.1l0.2-4.9c0-0.7,0.6-1.1,1.4-1.1h3.7c0.8,0,1.4,0.4,1.4,1.1L573,16c0,0.8,0.4,1.4,1.1,1.4
	h0.3c0.6-0.1,0.9-0.7,0.9-1.4V9.8c0-1.1-0.9-1.4-1.6-1.8c-0.2-0.1-0.4-0.2-0.5-0.3S573,7.4,573,7.2V1.3c0-0.7-0.6-1.1-1.4-1.1
	C571.6,0.2,563,0.2,563,0.2z M579.4,0.2h-0.3c-0.6,0.1-1.1,0.5-1.1,1.1l-0.1,15c0,0.4,0.2,0.6,0.4,0.8c0.1,0,0.1,0.1,0.2,0.1
	c0.2,0.1,0.5,0.2,0.8,0.2h9.5c0.8,0,1.4-0.4,1.4-1.1l-0.1-15c0-0.7-0.6-1.1-1.4-1.1L579.4,0.2L579.4,0.2z M594.2,0.2h-0.3
	c-0.2,0-0.3,0.1-0.5,0.1c-0.4,0.2-0.6,0.5-0.6,1l0.1,2.2V16c0,0.7,0.3,1.2,0.9,1.4h0.5c0.6-0.1,0.9-0.7,0.9-1.4V6.2
	c0-0.7,0.6-1.1,1.4-1.1h5c0.8,0,1.4,0.4,1.4,1.1l0.1,9.7c0,0.8,0.4,1.4,1.1,1.4h0.3c0.6-0.1,0.9-0.7,0.9-1.4V1.3
	c0-0.7-0.6-1.1-1.4-1.1L594.2,0.2L594.2,0.2z M617.8,0.2c-0.6,0-1.1,0.2-1.3,0.6c-0.1,0.1-0.1,0.3-0.1,0.5l-0.1,15
	c0,0.3,0.1,0.5,0.2,0.7c0.2,0.3,0.7,0.5,1.1,0.5h8c0.8,0,1.4-0.4,1.4-1.1c0-0.7-0.6-1.1-1.4-1.1H620c-0.8,0-1.4-0.4-1.4-1.1l0.1-7.9
	c0-0.7,0.6-1.1,1.4-1.1h5.6c0.8,0,1.4-0.4,1.4-1.1V1.4c0-0.7-0.6-1.1-1.4-1.1L617.8,0.2L617.8,0.2z M611,0.2c-0.5,0-0.8,0.2-0.9,0.6
	C610,0.9,610,1.1,610,1.3v0.3l0.1,9.9c0,0.5-0.3,0.9-0.7,1c-0.1,0-0.2,0-0.2,0.1h-0.8c-0.8,0-1.5,0.4-1.5,1.1v2.6
	c0,0.4,0.2,0.6,0.5,0.8c0.1,0,0.1,0.1,0.2,0.1c0.2,0.1,0.5,0.2,0.8,0.2h4.5c0.8,0,1.4-0.4,1.4-1.1v-2.6v-0.3c-0.1-0.6-0.5-0.7-1-0.8
	c-0.2,0-0.4-0.1-0.5-0.1c-0.3-0.1-0.4-0.4-0.4-1V1.6C612.2,0.8,611.8,0.2,611,0.2L611,0.2z M440.8,0.2c-0.8,0-1.4,0.4-1.4,1.1V4
	c0,0.7,0.6,1.1,1.4,1.1h1.7c0.8,0,1.4,0.4,1.4,1.1l-0.1,9.9c0,0.8,0.4,1.4,1.1,1.4h0.2c0.6-0.1,0.9-0.7,0.9-1.4V6.2
	c0-0.6,0.5-1,1.1-1.1h5c0.8,0,1.4,0.4,1.4,1.1v9.9c0,0.8,0.4,1.4,1.1,1.4h0.3c0.6-0.1,0.8-0.7,0.8-1.4l-0.1-9.9c0-0.6,0.5-1,1.1-1.1
	h2c0.8,0,1.4-0.4,1.4-1.1V1.4c0-0.7-0.6-1.1-1.4-1.1L440.8,0.2z M550.3,0.2c-0.2,0-0.4,0-0.5,0.1c-0.1,0-0.2,0.1-0.2,0.1
	c-0.4,0.2-0.6,0.5-0.6,1V4c0,0.7,0.6,1.1,1.4,1.1h1.7c0.8,0,1.4,0.4,1.4,1.1l-0.1,9.9c0,0.4,0.1,0.7,0.3,1c0,0.1,0.1,0.1,0.2,0.2
	s0.2,0.2,0.4,0.2h0.5c0.6-0.1,0.9-0.7,0.9-1.4V6.2c0-0.6,0.5-1,1.1-1.1h2c0.8,0,1.4-0.4,1.4-1.1V1.4c0-0.7-0.6-1.1-1.4-1.1
	L550.3,0.2L550.3,0.2z M639,0.2l-8.1,0.1h-0.3c-0.6,0.1-1.1,0.5-1.1,1.1l0.1,7.6c0,0.7,0.6,1.1,1.4,1.1l4,0.1c0.8,0,1.4,0.4,1.4,1.1
	l-0.1,2.8c0,0.2,0,0.3-0.1,0.5c-0.1,0.3-0.4,0.5-0.7,0.6h-6.6c-0.6,0.1-1.1,0.5-1.1,1.1c0,0.4,0.1,0.6,0.4,0.8
	c0.2,0.2,0.6,0.3,1,0.3h10.7c0.4,0,0.7-0.1,1-0.3s0.4-0.5,0.4-0.8l0.1-7.4c0-0.7-0.6-1.1-1.4-1.1h-6.6c-0.8,0-1.4-0.4-1.4-1.1
	l-0.1-3.1c0-0.7,0.6-1.1,1.4-1.1h5.7c0.8,0,1.4-0.4,1.4-1.1S639.8,0.2,639,0.2z M465.4,0.4c-0.8,0-1.4,0.4-1.4,1.1v5.2
	c0,0.8-0.4,1.4-1.1,1.4h-1.5c-0.8,0-1.4,0.4-1.4,1.1l-0.1,7.1c0,0.5,0.4,0.9,0.9,1.1c0.1,0,0.2,0,0.2,0.1h11.4
	c0.8,0,1.4-0.4,1.4-1.1c0-0.7-0.6-1.1-1.4-1.1h-8.7c-0.8,0-1.4-0.4-1.4-1.1l0.1-2.6c0-0.7,0.6-1.1,1.4-1.1h9c0.1,0,0.2,0,0.2-0.1
	c0.5-0.1,0.9-0.5,0.9-1c0-0.6-0.5-1-1.1-1.1h-2.5c-0.4-0.1-0.7-0.2-0.9-0.4c-0.1-0.2-0.2-0.4-0.2-0.7l0.1-3.2c0-0.7,0.6-1.1,1.4-1.1
	h1.8c0.8,0,1.4-0.4,1.4-1.1s-0.6-1.1-1.4-1.1L465.4,0.4L465.4,0.4z M498.6,0.4c-0.5,0-0.9,0.1-1.1,0.4c0,0.1-0.1,0.1-0.1,0.2
	c-0.1,0.1-0.1,0.3-0.1,0.5v5.2c0,0.8-0.4,1.4-1.1,1.4h-1.5c-0.8,0-1.4,0.4-1.4,1.1l-0.1,7.1c0,0.3,0.1,0.5,0.2,0.7s0.4,0.3,0.6,0.4
	c0.1,0,0.2,0,0.3,0.1h11.4c0.8,0,1.4-0.4,1.4-1.1c0-0.7-0.6-1.1-1.4-1.1H497c-0.8,0-1.4-0.4-1.4-1.1l0.1-2.6c0-0.7,0.6-1.1,1.4-1.1
	h8.9c0.1,0,0.2,0,0.3-0.1c0.5-0.1,0.8-0.5,0.8-1c0-0.6-0.5-1-1.1-1.1h-2.5c-0.4-0.1-0.7-0.2-0.9-0.4c-0.1-0.2-0.2-0.4-0.2-0.7
	l0.1-3.2c0-0.7,0.6-1.1,1.4-1.1h1.8c0.8,0,1.4-0.4,1.4-1.1s-0.6-1.1-1.4-1.1L498.6,0.4L498.6,0.4z M526.2,0.4
	c-0.5,0-0.9,0.1-1.1,0.4c0,0.1-0.1,0.1-0.1,0.2c-0.1,0.1-0.1,0.3-0.1,0.5v5.2c0,0.8-0.4,1.4-1.1,1.4h-1.5c-0.8,0-1.4,0.4-1.4,1.1
	l-0.1,7.1c0,0.3,0.1,0.5,0.2,0.7c0.1,0.2,0.3,0.3,0.6,0.4c0.1,0,0.2,0,0.3,0.1s0.2,0,0.3,0h11.1c0.8,0,1.4-0.4,1.4-1.1
	c0-0.7-0.6-1.1-1.4-1.1h-8.7c-0.8,0-1.4-0.4-1.4-1.1l0.1-2.6c0-0.7,0.6-1.1,1.4-1.1h8.9c0.1,0,0.2,0,0.3-0.1c0.5-0.1,0.9-0.5,0.9-1
	c0-0.6-0.5-1-1.1-1.1h-2.5c-0.4-0.1-0.7-0.2-0.9-0.4C530,7.5,530,7.2,530,7l0.1-3.2c0-0.7,0.6-1.1,1.4-1.1h1.8
	c0.8,0,1.4-0.4,1.4-1.1s-0.6-1.1-1.4-1.1C533.3,0.5,526.2,0.4,526.2,0.4z M430.6,2.6h3.1c0.8,0,1.4,0.4,1.4,1.1l0.1,3.2
	c0,0.7-0.6,1.1-1.4,1.1h-4.5c-1.6,0-1.4-1.1-1.3-1.5l1.3-2.9C429.6,3.1,429.9,2.6,430.6,2.6z M565.4,2.6h3.8c0.8,0,1.4,0.4,1.4,1.1
	l0.1,3.2c0,0.7-0.6,1.1-1.4,1.1h-3.9c-0.8,0-1.4-0.4-1.4-1.1l0.1-3.2C564,3,564.6,2.6,565.4,2.6L565.4,2.6z M581.6,2.6h5
	c0.8,0,1.4,0.4,1.4,1.1l0.1,7.9c0,0.7-0.6,1.1-1.4,1.1h-5.1c-0.8,0-1.4-0.4-1.4-1.1l0.1-7.9C580.2,3,580.8,2.6,581.6,2.6L581.6,2.6z
	 M377.8,6.7c0,0-17.5,67.3-18,68.9c-0.6,2-2.5,2.6-3.5,0.3c-1.2-2.4-14.5-47.9-14.5-47.9h-24.2c0,0,18.1,59.2,18.9,61
	c8.6,18.4,27.5,11,31.3-2.4c4-13.9,21.1-79.8,21.1-79.8L377.8,6.7L377.8,6.7z M128.1,11.8L90.5,35.7v-7.6H78.6v33
	c0,0.8-1.5,2.3-2.9,0.3c0,0-15.9-22.8-21.7-29.7c-4.8-5.7-21.5-5.4-21.5,8.1v59h11.9V57.3c0-2.3,2-1.5,3.3-0.1
	c0.6,0.7,26.2,39.6,27.3,41.2c2.6,3.5,15.5,6.1,15.5-7.2v-53h11.7c1.2,0,2.8,1.4,2.8,1.4c0,1.2-0.2,37.5-0.2,42.3
	c0,10.8,8.9,18.1,18.6,18.1h21.5V89.4H135c-3.5,0-6.3-2.6-6.3-6.2V42.4c0-2.2,1.8-5.3,5.3-5.3s11-0.1,11-0.1v-9h-14.8
	c-1.4,0-2.1-1.1-2.1-2.1C128.1,25.9,128.1,11.8,128.1,11.8z M0.2,12.2c0,0-0.2,82.9-0.2,87.9h23.2V12.2H0.2z M541.7,27.2
	c-11.1,0-21.1,4.6-28.1,12c-0.4,0.4-0.8,0.9-1.2,1.3c-5.4,6.3-8.7,14.5-8.7,23.3c0,5.1,1.1,9.9,3,14.3c0.2,0.5,0.5,1.1,0.8,1.6
	c4.5,9.1,12.8,16.1,22.9,19.2c0.6,0.2,1.2,0.3,1.8,0.5c3,0.8,6.2,1.2,9.5,1.2c21,0,38-16.4,38-36.7S562.7,27.2,541.7,27.2
	L541.7,27.2z M440.4,27.7c-13.9,0-24.7,10-24.7,24.1c0,14.6,16.1,19.2,24.6,20.1c5.3,0.6,10.5,4.3,10.5,9.5c0,4.2-3.6,7.6-7.6,7.6
	h-24.8v10.5h28.8c13.3-0.7,23.9-11.4,23.9-24.6c0-2.2-0.1-4.1-0.4-5.8c-0.1-0.4-0.2-0.8-0.3-1.3c-2.4-11-11-13.2-24.5-16.7
	c0,0-7.2-2.2-7.2-6.5c0-2.7,1.6-4.5,3.7-5.5c0.2-0.1,0.4-0.2,0.7-0.3c1.1-0.4,2.3-0.6,3.6-0.6l16.8,0.1V27.7H440.4z M289.1,27.8
	c0,0-0.2,7.4-0.2,12.3l23.2-0.1V27.8C312.1,27.8,289.1,27.8,289.1,27.8z M387.4,27.8c0,0-0.2,7.4-0.2,12.3l23.1-0.1V27.8
	C410.3,27.8,387.4,27.8,387.4,27.8z M476,27.8c0,0-0.2,7.4-0.2,12.3l23.1-0.1V27.8L476,27.8L476,27.8z M165.3,27.9
	c-6.6,0-11.5,3.4-13.8,9.1c-0.2,0.5-0.4,1-0.6,1.6c-0.7,2.2-1.1,4.7-1.1,7.4v35.3c0,10.8,5.8,18.5,15.5,18.5H200V89.2h-20.7
	c-3.5,0-6.3-3-6.3-6.6V68.9h23.7V58.4H173V44.5c0-3.5,2.8-6.2,6.4-6.2H200V27.9L165.3,27.9L165.3,27.9z M204.9,28
	c0,0-0.2,48.9-0.2,53.8c0,2,0.3,3.9,0.8,5.7c0.2,0.6,0.4,1.2,0.6,1.7c2.5,6,8.1,10,14.6,10.6c0.6,0.1,1.2,0.1,1.8,0.1H244V89.4h-9.5
	c-3.5,0-6.3-2.6-6.3-6.2V28L204.9,28L204.9,28z M245.9,28c0,0-0.2,48.9-0.2,53.8c0,10.1,7.2,17.1,16.1,18c0.6,0.1,1.2,0.1,1.8,0.1
	h21.5V89.4h-9.9c-3.5,0-6.4-2.6-6.4-6.2V28C268.8,28,245.9,28,245.9,28z M629.4,28.2v33c0,0.8-1.5,2.3-2.9,0.3
	c0,0-15.9-22.8-21.6-29.7c-4.8-5.7-21.5-5.4-21.6,8.1v59h11.9V57.3c0-2.3,2-1.5,3.3-0.1c0.6,0.7,26.2,39.6,27.3,41.2
	c0.5,0.7,1.3,1.3,2.4,1.8c0.4,0.2,0.7,0.3,1.1,0.5c4.7,1.6,12,0.5,12-9.4v-63h-11.9V28.2z M541.7,35.7c9.2,0,12.9,12.6,12.9,28.2
	c0,15.5-4.3,28.1-12.9,28.2c-2.3,0-4.3-0.8-5.9-2.2l-0.6-0.6c-0.6-0.6-1.1-1.3-1.6-2c-0.2-0.3-0.3-0.5-0.5-0.8
	c-3-5.1-4.2-13.4-4.2-22.6V61c0.2-8.5,1.1-15.9,4-20.5c0.2-0.3,0.3-0.5,0.5-0.7C535.4,37.3,538,35.7,541.7,35.7z M289.1,44.6
	c0,0-0.2,50.5-0.2,55.4h23.2V44.6C312.1,44.6,289.1,44.6,289.1,44.6z M387.4,44.6c0,0-0.2,50.5-0.2,55.4h23.1V44.6
	C410.3,44.6,387.4,44.6,387.4,44.6z M476,44.6c0,0-0.2,50.5-0.2,55.4h23.1V44.6L476,44.6L476,44.6z"/>
<g>
	<path class="st1" d="M643.1,3.5h-0.4V0.9h1c0.6,0,0.9,0.2,0.9,0.7s-0.3,0.7-0.7,0.7l0.7,1.1h-0.4l-0.7-1.1h-0.4L643.1,3.5
		L643.1,3.5z M643.6,2c0.3,0,0.6,0,0.6-0.4c0-0.3-0.3-0.4-0.6-0.4h-0.5V2H643.6z"/>
	<path class="st1" d="M641.4,2.2c0-1.3,1-2.2,2.2-2.2s2.2,0.9,2.2,2.2s-1,2.2-2.2,2.2S641.4,3.5,641.4,2.2z M643.6,4
		c1,0,1.8-0.8,1.8-1.8s-0.8-1.8-1.8-1.8s-1.8,0.8-1.8,1.8C641.8,3.3,642.6,4,643.6,4z"/>
</g>
<path class="st0" d="M648.6,92.9h-1.9v5.4h-1.3v-5.4h-2v-1.1h5.3L648.6,92.9L648.6,92.9z M655.7,98.3h-1.4V93l-1.2,5.3h-1.3
	l-1.2-5.3v5.3h-1.4v-6.6h2l1.2,5l1.2-5h2v6.6H655.7z"/>
<g>
	<path class="st0" d="M180,141.5h-4.9v-37.9h4.9V141.5z M209.7,141.5h-4.4v-19.9c0-1.1-0.5-2.1-1.6-2.9c-1.1-0.9-2.4-1.3-4-1.3
		c-2.2,0-3.9,0.8-5.3,2.4s-2.1,3.6-2.1,6v15.8H188v-27.3h4.4v3.5c1.9-2.9,4.6-4.3,8.1-4.3c3.3,0,5.8,0.8,7.4,2.5
		c1.2,1.3,1.9,3,1.9,5L209.7,141.5L209.7,141.5z M226.6,142.4c-1.3,0.2-2.5,0.4-3.7,0.4c-1.5,0-2.8-0.4-3.7-1.3
		c-0.8-0.8-1.2-1.6-1.2-2.7v-20.6h-3.8v-4h3.8v-7.4h4.4v7.4h4.3v4h-4.3v19.2c0,0.9,0.6,1.3,1.9,1.3c0.5,0,1.3-0.1,2.4-0.3
		L226.6,142.4L226.6,142.4z M254.5,128c0,0.7,0,1.2-0.1,1.6h-19.9c0,0.2-0.1,0.6-0.1,1c0,2.2,0.8,4.1,2.3,5.8s3.3,2.5,5.4,2.5
		c3.6,0,6-1.9,7.3-5.7h4.5c-1.5,6.3-5.2,9.5-11.3,9.5c-8.5,0-12.7-4.9-12.7-14.8c0-4.2,1.2-7.7,3.5-10.4s5.3-4.1,8.9-4.1
		c3.6,0,6.4,1.1,8.5,3.3C253.2,119.3,254.4,123.1,254.5,128L254.5,128z M249.8,125.8c-0.6-5.9-3-8.8-7.4-8.8c-4.5,0-7.1,2.9-7.8,8.8
		H249.8z M264.6,141.5h-4.4v-37.9h4.4V141.5z M276.2,141.5h-4.4v-37.9h4.4V141.5z M287.6,109h-4.4v-5.4h4.4V109z M287.6,141.5h-4.4
		v-27.3h4.4V141.5z M316.8,139.2c0,5.8-1.8,9.8-5.4,12c-1.9,1.1-4.2,1.7-6.9,1.7c-3.2,0-5.8-0.8-7.8-2.5s-3-3.6-2.9-5.9h4.5
		c0,1.6,0.9,2.8,2.5,3.6c1.2,0.6,2.5,0.9,3.8,0.9c5.1,0,7.7-2.9,7.7-8.7c0-0.2,0-0.5,0.1-1s0.1-0.8,0.1-1.1c-3.3,3-6.1,4.5-8.6,4.5
		c-2.9,0-5.4-1.2-7.5-3.6c-2.3-2.7-3.4-6.3-3.4-10.8c0-4.6,1.1-8.3,3.2-10.9s5-4,8.4-4c3.3,0,5.9,1.4,7.9,4.3v-3.5h4.4v25
		L316.8,139.2z M312.4,128.6c0-6.9-2.7-10.3-8-10.3c-2.2,0-3.8,1-5.1,2.9s-1.9,4.5-1.9,7.8c0,2.9,0.7,5.2,2,7
		c1.4,1.8,3.2,2.7,5.5,2.7c2.2,0,4-0.9,5.4-2.8C311.7,134,312.4,131.5,312.4,128.6L312.4,128.6z M346.9,128c0,0.7,0,1.2-0.1,1.6H327
		c0,0.2-0.1,0.6-0.1,1c0,2.2,0.8,4.1,2.3,5.8s3.3,2.5,5.4,2.5c3.6,0,6-1.9,7.3-5.7h4.5c-1.5,6.3-5.2,9.5-11.3,9.5
		c-8.5,0-12.7-4.9-12.7-14.8c0-4.2,1.2-7.7,3.5-10.4s5.3-4.1,8.9-4.1s6.4,1.1,8.5,3.3C345.7,119.3,346.9,123.1,346.9,128L346.9,128z
		 M342.3,125.8c-0.6-5.9-3-8.8-7.4-8.8c-4.5,0-7.1,2.9-7.8,8.8H342.3L342.3,125.8z M374.4,141.5H370v-19.9c0-1.1-0.5-2.1-1.6-2.9
		s-2.4-1.3-4-1.3c-2.1,0-3.9,0.8-5.3,2.4s-2.1,3.6-2.1,6v15.8h-4.4v-27.3h4.4v3.5c1.9-2.9,4.6-4.3,8.1-4.3c3.3,0,5.8,0.8,7.4,2.5
		c1.2,1.3,1.9,3,1.9,5V141.5L374.4,141.5z M391.3,142.4c-1.3,0.2-2.5,0.4-3.7,0.4c-1.5,0-2.8-0.4-3.7-1.3c-0.8-0.8-1.2-1.6-1.2-2.7
		v-20.6h-3.8v-4h3.8v-7.4h4.4v7.4h4.3v4H387v19.2c0,0.9,0.6,1.3,1.9,1.3c0.5,0,1.3-0.1,2.4-0.3V142.4z M437.8,108h-12.4v33.6h-4.9
		V108H408v-4.3h29.7L437.8,108L437.8,108z M465.4,128c0,0.7,0,1.2-0.1,1.6h-19.9c0,0.2-0.1,0.6-0.1,1c0,2.2,0.8,4.1,2.3,5.8
		s3.3,2.5,5.4,2.5c3.6,0,6-1.9,7.3-5.7h4.5c-1.5,6.3-5.2,9.5-11.3,9.5c-8.5,0-12.7-4.9-12.7-14.8c0-4.2,1.2-7.7,3.5-10.4
		s5.3-4.1,8.9-4.1s6.4,1.1,8.5,3.3C464.2,119.3,465.4,123.1,465.4,128L465.4,128z M460.8,125.8c-0.6-5.9-3-8.8-7.4-8.8
		c-4.5,0-7.1,2.9-7.8,8.8H460.8L460.8,125.8z M475.6,141.5h-4.4v-37.9h4.4V141.5z M505.9,128c0,0.7,0,1.2-0.1,1.6H486
		c0,0.2-0.1,0.6-0.1,1c0,2.2,0.8,4.1,2.3,5.8s3.3,2.5,5.4,2.5c3.6,0,6-1.9,7.3-5.7h4.5c-1.5,6.3-5.2,9.5-11.3,9.5
		c-8.5,0-12.7-4.9-12.7-14.8c0-4.2,1.2-7.7,3.5-10.4s5.3-4.1,8.9-4.1s6.4,1.1,8.5,3.3C504.6,119.3,505.9,123.1,505.9,128L505.9,128z
		 M501.3,125.8c-0.6-5.9-3-8.8-7.4-8.8c-4.5,0-7.1,2.9-7.8,8.8H501.3L501.3,125.8z M533.4,114.2l-10.5,27.3h-4.7l-9.6-27.3h4.9
		l7.1,22l7.9-22H533.4z M541.9,109h-4.4v-5.4h4.4V109z M541.9,141.5h-4.4v-27.3h4.4V141.5z M569.5,134.1c0,2.7-1,4.8-3.1,6.3
		s-4.7,2.3-7.9,2.3c-4.1,0-7-0.8-8.7-2.4c-1.5-1.4-2.3-3.6-2.4-6.8h4.2c0,1.8,0.7,3.3,2.2,4.3c1.3,0.9,2.8,1.3,4.6,1.3
		c2,0,3.6-0.4,4.9-1.1c1.3-0.7,1.9-1.9,1.9-3.3c0-1.9-1.2-3.2-3.5-3.8l-6.8-1.6c-2.6-0.6-4.4-1.6-5.5-3c-0.9-1.1-1.3-2.7-1.3-4.7
		c0-2.5,1-4.4,2.9-5.9s4.5-2.2,7.7-2.2c3,0,5.3,0.7,7,2.2c1.7,1.4,2.6,3.5,2.7,6.3h-4.3c-0.1-2.9-2.1-4.4-6.1-4.4
		c-1.5,0-2.8,0.4-4,1.2c-1.2,0.8-1.8,1.8-1.8,3c0,1.7,1.3,2.8,3.8,3.4l7.1,1.7C567.4,127.9,569.5,130.3,569.5,134.1L569.5,134.1z
		 M579.5,109h-4.4v-5.4h4.4V109z M579.5,141.5h-4.4v-27.3h4.4V141.5z M609.7,127.7c0,4.4-0.9,7.9-2.7,10.5c-2.1,3-5.3,4.5-9.6,4.5
		c-4.1,0-7.1-1.3-9.3-4c-2-2.6-3.1-6.2-3.1-11c0-4.4,1.1-7.9,3.2-10.5c2.1-2.5,5.2-3.8,9.1-3.8s7,1.3,9.1,3.8
		C608.7,119.8,609.7,123.3,609.7,127.7z M605.3,127.7c0-3.1-0.8-5.5-2.3-7.4c-1.4-1.7-3.3-2.5-5.5-2.5c-2.3,0-4.1,0.8-5.5,2.5
		c-1.6,1.8-2.3,4.3-2.3,7.4c0,3.2,0.7,5.8,2.1,7.7c1.4,1.9,3.3,2.9,5.7,2.9s4.3-1,5.7-2.9S605.3,130.9,605.3,127.7z M637.4,141.5
		H633v-19.9c0-1.1-0.5-2.1-1.6-2.9s-2.4-1.3-4-1.3c-2.1,0-3.9,0.8-5.3,2.4s-2.1,3.6-2.1,6v15.8h-4.4v-27.3h4.4v3.5
		c1.9-2.9,4.6-4.3,8.1-4.3c3.3,0,5.8,0.8,7.4,2.5c1.2,1.3,1.9,3,1.9,5L637.4,141.5L637.4,141.5z"/>
</g>
</svg>
