<?xml version="1.0" encoding="utf-8"?>
<!-- Generator: Adobe Illustrator 27.4.1, SVG Export Plug-In . SVG Version: 6.00 Build 0)  -->
<svg version="1.1" id="图层_1" xmlns="http://www.w3.org/2000/svg" xmlns:xlink="http://www.w3.org/1999/xlink" x="0px" y="0px"
	 viewBox="0 0 508.2 60.1" style="enable-background:new 0 0 508.2 60.1;" xml:space="preserve">
<style type="text/css">
	.st0{fill:#C8C8C8;}
	.st1{fill:#C02424;}
	.st2{fill:#221D1F;}
</style>
<path class="st0" d="M265.8,54c0,0.6-0.5,1.2-1.2,1.2h-22.2c-0.6,0-1.2-0.5-1.2-1.2c0,0,0,0,0,0V37.9c0-0.6,0.5-1.2,1.2-1.2h22.2
	c0.6,0,1.2,0.5,1.2,1.2V54z M264.9,31.9h-22.6c-3.3,0-5.9,2.7-5.9,5.9V54c0,3.3,2.7,5.9,5.9,5.9h22.6c3.3,0,5.9-2.7,5.9-5.9V37.9
	C270.8,34.6,268.2,31.9,264.9,31.9"/>
<path class="st1" d="M326.8,27.3c0,0,16.7-2.7,16.7-13C343.4,4.1,325.7,0,306.8,0c-17,0-28.2,2.1-28.2,2.1v9.2
	c7.7-1.9,15.1-3.5,25.2-3.5c10.8,0,19.1,3.2,19.1,7.8c0,5.5-8.2,8.6-25.7,8.6H289v8.3h7.5c18.5,0,29,2.8,29,9.6
	c0,6.1-9.4,9.8-21.1,9.8c-10.2,0-19.6-2.2-27.2-4.3v9.9c3.6,0.6,13.3,2.6,31.3,2.6c20,0,37.3-6.4,37.3-17.7
	C345.9,32.9,333.9,27.3,326.8,27.3"/>
<path class="st2" d="M5.2,7.8v20.8H0V0.5h4.4l21,20.4V0.5h5.1v28.1h-4.1L5.2,7.8z M57.3,7.8v20.8h-5.2V0.5h4.4l21,20.4V0.5h5.1v28.1
	h-4.1L57.3,7.8z M165.2,7.8v20.8H160V0.5h4.4l21,20.4V0.5h5.1v28.1h-4.1L165.2,7.8z M43,0.5h1v28.1h-5.2V0.5C38.7,0.5,43,0.5,43,0.5
	z M118,0.5h1v4.8h-12.5v23.2h-5.4V5.3H88.6V0.5C88.6,0.5,118,0.5,118,0.5z M151.3,0.5h1v4.8H130v6.3h17.2v4.8H130v7.3h22.3v4.8
	h-27.4V0.5L151.3,0.5L151.3,0.5z M219.5,23.7h-16V5.3h16c5,0,6.8,5,6.8,9.2C226.2,18.8,224.5,23.7,219.5,23.7 M228,4.6
	c-2-2.7-5-4.1-8.7-4.1h-20.8v28.1h20.8c3.6,0,6.6-1.4,8.7-4.1c1.9-2.5,2.9-5.9,2.9-9.9C230.9,10.5,229.9,7.1,228,4.6 M265.8,22.6
	c0,0.6-0.5,1.2-1.2,1.2h-22.2c-0.6,0-1.2-0.5-1.2-1.2V6.5c0-0.6,0.5-1.2,1.2-1.2h22.2c0.6,0,1.2,0.5,1.2,1.2V22.6L265.8,22.6z
	 M264.9,0.5h-22.6c-3.3,0-5.9,2.7-5.9,6v16.2c0,3.3,2.7,5.9,5.9,5.9h22.6c3.3,0,5.9-2.7,5.9-5.9V6.4C270.8,3.2,268.2,0.5,264.9,0.5
	 M433.7,48.2c5.4,2.1,16.8,3.8,25.6,3.8c9.7,0,13.7-3.3,13.7-7.5c0-3.8-3.7-6-14.5-9.9c-14.3-5.3-24.9-9.5-24.9-18.9
	c0-9.8,12.7-15.5,32-15.5c10.4,0,13.9,0.7,20.5,1.9l0,9.3C479.8,10.1,474,8,465.1,8c-9.5,0-13.6,3-13.6,6.1c0,4.5,6.3,6.7,17.2,10.6
	c15.3,5.5,23.8,9.7,23.8,18.9c0,9.5-10.6,16.3-34.7,16.3c-9.9,0-16.7-0.7-24.2-1.9L433.7,48.2L433.7,48.2z M382.5,8.4h-11.4v43.3
	h11.4c17.5,0,28.6-7.5,28.6-21.5C411.2,16.1,400.1,8.4,382.5,8.4 M413.2,55.7c-5.7,2.6-16.3,4.2-25.7,4.2h-35.7V0.4h35.7
	c9.4,0,20,1.6,25.7,4.2c13.8,6.2,18.2,16.2,18.2,25.6C431.5,39.6,427,49.5,413.2,55.7 M497.4,51.8h-1.9v-1h5v1h-1.9v5.6h-1.2V51.8z
	 M506.9,54.7c0-0.9-0.1-1.9-0.1-2.8h0c-0.2,0.9-0.5,1.7-0.8,2.5l-1,2.9h-0.9l-0.9-2.8c-0.3-0.8-0.5-1.7-0.7-2.6h0
	c0,0.9-0.1,1.9-0.1,2.8l-0.1,2.7h-1.1l0.4-6.6h1.6l0.9,2.7c0.2,0.8,0.4,1.6,0.6,2.3h0c0.2-0.7,0.4-1.5,0.7-2.3l0.9-2.6h1.6l0.4,6.6
	H507L506.9,54.7L506.9,54.7z"/>
</svg>
