<?xml version="1.0" encoding="utf-8"?>
<!-- Generator: Adobe Illustrator 27.4.1, SVG Export Plug-In . SVG Version: 6.00 Build 0)  -->
<svg version="1.1" id="Layer_1" xmlns:svg="http://www.w3.org/2000/svg"
	 xmlns="http://www.w3.org/2000/svg" xmlns:xlink="http://www.w3.org/1999/xlink" x="0px" y="0px" viewBox="0 0 566.9 102.8"
	 style="enable-background:new 0 0 566.9 102.8;" xml:space="preserve">
<style type="text/css">
	.st0{fill:#0222A9;}
	.st1{fill:#011DA9;}
	.st2{fill:#069330;}
	.st3{fill:#FE2015;}
	.st4{fill:#FFC001;}
	.st5{fill:#7B7692;}
	.st6{fill:#27272A;}
</style>
<g>
	<g>
		<g id="layer2">
			<polygon id="polygon3542" class="st0" points="51.5,11.1 39.6,32.3 51.5,27.8 62.8,32.1 65.9,28.7 65.9,5.6 			"/>
			<polygon id="polygon3558" class="st1" points="88.4,87.3 66.9,59.3 66.9,96.3 51.5,102.8 51.5,39.6 66.9,33.7 88.4,64.4 
				88.4,25.4 103,19.7 103,81.2 			"/>
			<polygon id="polygon3560" class="st0" points="14.6,87.3 28.3,81.2 14.6,54.7 			"/>
		</g>
		<g id="layer3">
			<polygon id="polygon3538" class="st2" points="29.2,19.7 36,33.7 39.6,32.3 51.5,11.1 37.1,5.5 			"/>
			<polygon id="polygon3540" class="st2" points="62.8,32.1 73.8,19.7 88.4,25.4 88.4,64.4 66.9,33.7 			"/>
			<polygon id="polygon3552" class="st2" points="14.6,25.4 0,19.7 0,81.2 14.6,87.3 14.6,54.7 36,96.3 51.5,102.8 51.5,39.6 
				36,33.7 36,65.8 			"/>
		</g>
		<g id="layer4">
			<polygon id="polygon3554" class="st3" points="36,33.7 36,65.8 14.6,25.4 29.2,19.7 			"/>
			<polygon id="polygon3556" class="st3" points="88.4,87.3 66.9,59.3 66.9,74.6 71.3,80.7 			"/>
		</g>
		<g id="layer5">
			<polygon id="polygon3544" class="st4" points="66.9,33.7 51.5,39.6 36,33.7 51.5,27.8 			"/>
			<polygon id="polygon3546" class="st4" points="73.8,19.7 88.4,14.1 103,19.7 88.4,25.4 			"/>
			<polygon id="polygon3548" class="st4" points="0,19.7 14.6,14.1 29.2,19.7 14.6,25.4 			"/>
			<polygon id="polygon3550" class="st4" points="65.9,5.6 51.5,0 37.1,5.5 51.5,11.1 			"/>
		</g>
	</g>
	<g>
		<g id="g3516">
			<polygon id="polygon3518" class="st5" points="154.1,81.3 175.4,81.3 175.4,33.8 161,33.8 161,61 160.9,61 151.3,33.8 
				129.9,33.8 129.9,81.3 144.4,81.3 144.4,53.8 144.5,53.8 			"/>
			<polygon id="polygon3520" class="st5" points="234.7,81.3 256.1,81.3 256.1,33.8 241.6,33.8 241.6,61 241.5,61 232,33.8 
				210.6,33.8 210.6,81.3 225.1,81.3 225.1,53.8 225.2,53.8 			"/>
			<polygon id="polygon3522" class="st5" points="373.6,81.3 395,81.3 395,33.8 380.5,33.8 380.5,61 380.4,61 370.8,33.8 
				349.5,33.8 349.5,81.3 363.9,81.3 363.9,53.8 364,53.8 			"/>
			<polygon id="polygon3524" class="st5" points="184.2,33.8 202,33.8 202,81.3 184.2,81.3 			"/>
			<polygon id="polygon3526" class="st5" points="272.6,46.7 261.3,46.7 261.3,33.8 301.8,33.8 301.8,46.7 290.4,46.7 290.4,81.3 
				272.6,81.3 			"/>
			<polygon id="polygon3536" class="st5" points="307,33.7 342.3,33.7 342.3,46.3 324.6,46.3 324.6,51.3 340.9,51.3 340.9,63.4 
				324.6,63.4 324.6,68.8 342.9,68.8 342.9,81.2 307,81.2 			"/>
		</g>
		<g id="layer6">
			<path id="path3528" class="st6" d="M402.6,33.8h21.1c18,0,23.8,10.2,23.8,24.3c0,14.3-8.8,23.2-22.7,23.2h-22.2L402.6,33.8
				L402.6,33.8z M420.1,70.5h1.7c2.9,0,4.8-0.9,5.9-2.8c1.2-2,1.3-5.6,1.3-10.2s-0.1-8.2-1.3-10.2c-1.1-1.9-3-2.8-5.9-2.8h-1.7V70.5
				L420.1,70.5z"/>
			<path id="path3530" class="st6" d="M475.5,32.5c15.5,0,23.2,10.2,23.2,25s-7.7,25-23.2,25s-23.2-10.2-23.2-25
				C452.2,42.7,459.9,32.5,475.5,32.5L475.5,32.5z M475.5,70.5c2.7,0,4.8-1.3,4.8-13c0-11.4-1.9-13-4.8-13s-4.8,1.6-4.8,13
				C470.6,69.1,472.7,70.5,475.5,70.5L475.5,70.5z"/>
			<path id="path3562" class="st6" d="M507,71.2c-3.1,0-5.6,2.5-5.6,5.6s2.5,5.6,5.6,5.6s5.6-2.5,5.6-5.6
				C512.7,73.8,510.1,71.2,507,71.2L507,71.2z M507,81.5c-2.6,0-4.6-2.1-4.6-4.7s2.1-4.6,4.6-4.6c2.6,0,4.7,2.1,4.7,4.6
				C511.7,79.4,509.6,81.5,507,81.5L507,81.5z"/>
			<path id="path3564" class="st6" d="M506.1,80h-1.3v-6.2h2.6c1.1,0,2.2,0.4,2.2,1.6c0,0.8-0.5,1.3-1.3,1.5l0,0
				c1,0.1,1,0.7,1.1,1.6c0.1,0.4,0.1,1.1,0.4,1.5h-1.5c-0.1-0.5-0.2-1.1-0.2-1.7c0-0.3-0.1-0.8-0.6-0.8h-1.4L506.1,80L506.1,80z
				 M506.1,76.4h1.1c0.6,0,0.9-0.3,0.9-0.8s-0.3-0.8-0.9-0.8h-1.1V76.4L506.1,76.4z"/>
			<polygon id="polygon3566" class="st6" points="154.1,81.3 175.4,81.3 175.4,33.8 161,33.8 161,61 160.9,61 151.3,33.8 
				129.9,33.8 129.9,81.3 144.4,81.3 144.4,53.8 144.5,53.8 			"/>
			<polygon id="polygon3568" class="st6" points="234.7,81.3 256.1,81.3 256.1,33.8 241.6,33.8 241.6,61 241.5,61 232,33.8 
				210.6,33.8 210.6,81.3 225.1,81.3 225.1,53.8 225.2,53.8 			"/>
			<polygon id="polygon3570" class="st6" points="373.6,81.3 395,81.3 395,33.8 380.5,33.8 380.5,61 380.4,61 370.8,33.8 
				349.5,33.8 349.5,81.3 363.9,81.3 363.9,53.8 364,53.8 			"/>
			<polygon id="polygon3572" class="st6" points="184.2,33.8 202,33.8 202,81.3 184.2,81.3 			"/>
			<polygon id="polygon3574" class="st6" points="272.6,46.7 261.3,46.7 261.3,33.8 301.8,33.8 301.8,46.7 290.4,46.7 290.4,81.3 
				272.6,81.3 			"/>
			<polygon id="polygon3576" class="st6" points="307,33.7 342.3,33.7 342.3,46.3 324.6,46.3 324.6,51.3 340.9,51.3 340.9,63.4 
				324.6,63.4 324.6,68.8 342.9,68.8 342.9,81.2 307,81.2 			"/>
		</g>
		<g id="layer7">
			<path id="path3532" class="st6" d="M530.6,27.4c-0.9-0.1-1.9,0-3.2,0c-7.5,0.3-10.6,3.6-11.6,7.2h0.2c1.9-1.6,4.2-2.4,7.3-2.4
				c6,0,11.4,4.3,11.4,12.5c0,7.8-6,13.9-14,13.9c-10.6,0-15.2-8.1-15.2-16.8c0-7,2.5-13,6.6-16.9c3.9-3.6,8.9-5.4,15.1-5.6
				c1.6-0.1,2.6,0,3.4,0.1V27.4L530.6,27.4z M520.6,50.9c2.4,0,3.9-2.5,3.9-5.7c0-2.7-1.2-5.6-4.5-5.6c-2,0-3.6,1.3-4.1,2.8
				c-0.2,0.5-0.3,1.1-0.3,2.3C515.7,47.7,517.2,50.9,520.6,50.9L520.6,50.9L520.6,50.9z"/>
			<path id="path3534" class="st6" d="M553.4,57.9v-8.5h-15.8v-6.8l12.7-22.7H563v21.7h4v7.8h-4v8.5H553.4L553.4,57.9z M553.4,41.6
				V35c0-2.4,0.1-4.9,0.3-7.6h-0.2c-1.2,2.6-2.2,5-3.5,7.7l-3.1,6.3v0.1L553.4,41.6L553.4,41.6z"/>
		</g>
	</g>
</g>
</svg>
