<?xml version="1.0" encoding="utf-8"?>
<!-- Generator: Adobe Illustrator 27.4.1, SVG Export Plug-In . SVG Version: 6.00 Build 0)  -->
<svg version="1.1"
	 id="svg2" xmlns:dc="http://purl.org/dc/elements/1.1/" xmlns:rdf="http://www.w3.org/1999/02/22-rdf-syntax-ns#" xmlns:svg="http://www.w3.org/2000/svg" xmlns:cc="http://creativecommons.org/ns#"
	 xmlns="http://www.w3.org/2000/svg" xmlns:xlink="http://www.w3.org/1999/xlink" x="0px" y="0px" viewBox="0 0 360.5 94.3"
	 style="enable-background:new 0 0 360.5 94.3;" xml:space="preserve">
<style type="text/css">
	.st0{clip-path:url(#SVGID_00000127766846271326188900000009025416813532623765_);}
	.st1{fill:#141414;}
	.st2{fill:#2C3792;}
</style>
<g id="g10" transform="matrix(1.25,0,0,-1.25,0,94.269)">
	<g id="g12">
		<g>
			<defs>
				<rect id="SVGID_1_" x="-36.1" y="-9.4" width="360.5" height="94.3"/>
			</defs>
			<clipPath id="SVGID_00000042012015753696768070000016812528752265249708_">
				<use xlink:href="#SVGID_1_"  style="overflow:visible;"/>
			</clipPath>
			<g id="g14" style="clip-path:url(#SVGID_00000042012015753696768070000016812528752265249708_);">
				<path id="path20" class="st1" d="M57.6,67.5h6.3V57.4h-6.3V67.5z M41.2,67.5h6.3V57.4h-6.3V67.5z M26,67.5h6.3V57.4H26V67.5z
					 M26,68.7v3.8h35.3c1.7,0,2.5-1.3,2.5-3.8H26z"/>
				<g id="g22" transform="translate(67.7012,61.16)">
					<path id="path24" class="st1" d="M0,0v6.3h6.3C6.3,5.5,6.7,5,7.6,5h15.1V1.3H6.3C6.3,0.4,6.7,0,7.6,0H24v-3.8H2.5
						C0.8-3.8,0-2.5,0,0 M0,11.4h24V7.6H0V11.4z"/>
				</g>
				<g id="g26" transform="translate(95.4703,61.16)">
					<path id="path28" class="st1" d="M0,0v6.3h6.3V0h12.6c0.8,0,1.3,0.2,1.3,0.6s-0.4,0.6-1.3,0.6h-6.3V5H24c2.5,0,3.8-1.3,3.8-3.8
						V0c0-2.5-0.8-3.8-2.5-3.8H2.5C0.8-3.8,0-2.5,0,0 M0,7.6c0,2.5,0.8,3.8,2.5,3.8h24V7.6H0z"/>
				</g>
				<g id="g30" transform="translate(147.2218,57.3733)">
					<path id="path32" class="st1" d="M0,0v2.5h-12.6v3.8H0v3.8h6.3V0H0z M-20.2,10.1h6.3V0h-6.3V10.1z M-20.2,11.4
						c0,2.5,0.8,3.8,2.5,3.8H3.8c1.7,0,2.5-1.3,2.5-3.8H-20.2z"/>
				</g>
				<g id="g34" transform="translate(181.302,57.3733)">
					<path id="path36" class="st1" d="M0,0h-16.4v3.8h12.6v6.3h6.3V3.8C2.5,1.3,1.7,0,0,0 M-24,10.1h6.3V0H-24
						C-24,0-24,10.1-24,10.1z M-24,11.4v3.8H0c1.7,0,2.5-1.3,2.5-3.8H-24z"/>
				</g>
				<g id="g38" transform="translate(195.1866,59.8978)">
					<path id="path40" class="st1" d="M0,0v3.8h11.4c0.8,0,1.3,0.4,1.3,1.3v2.5h6.3V3.8c0-2.5-0.8-3.8-2.5-3.8l3.8-2.5h-6.3L10.1,0
						H0z M-7.6,7.6h6.3V-2.5h-6.3V7.6z M-7.6,8.8c0,2.5,0.8,3.8,2.5,3.8h21.5c1.7,0,2.5-1.3,2.5-3.8H-7.6z"/>
				</g>
				<path id="path42" class="st1" d="M219.2,72.5h6.3V57.4h-6.3V72.5z"/>
				<g id="g44" transform="translate(250.5444,68.7334)">
					<path id="path46" class="st1" d="M0,0l2.5,3.8h7.6L7.6,0H0z M-9.9-11.4l-6.3,10.1h7.6l3.8-6.1l3.8,6.1h7.6L0.2-11.4H-9.9z
						 M-17.5,0L-20,3.8h7.6L-9.9,0H-17.5z"/>
				</g>
				<g id="g48" transform="translate(264.429,61.16)">
					<path id="path50" class="st1" d="M0,0v6.3h6.3C6.3,5.5,6.7,5,7.6,5h15.1V1.3H6.3C6.3,0.4,6.7,0,7.6,0H24v-3.8H2.5
						C0.8-3.8,0-2.5,0,0 M0,11.4h24V7.6H0V11.4z"/>
				</g>
				<g id="g52" transform="translate(26.0476,3.8277)">
					<path id="path54" class="st1" d="M0,0v12.3h51.8c2.7,0,4,0.7,4,2.1s-1.3,2.1-4,2.1H15.9v12.3H51c3.2,0,4.8,1.4,4.8,4.1h19.9
						V12.3C75.7,4.1,72,0,64.5,0H0z M0,36.9v12.3h64.5c7.4,0,11.2-4.1,11.2-12.3H0z"/>
				</g>
				<g id="g56" transform="translate(109.708,20.2367)">
					<path id="path58" class="st1" d="M0,0c0,8.2,4,12.3,12,12.3h39.8c2.7,0,4,1.4,4,4.1h19.9v-4.1c0-8.2-4-12.3-12-12.3H19.9
						c-2.7,0-4-1.4-4-4.1h59.8v-12.3H0V0z M0,20.5v12.3h63.7c8,0,12-4.1,12-12.3L0,20.5z"/>
				</g>
				<g id="g60" transform="translate(264.5084,53.0547)">
					<path id="path62" class="st1" d="M0,0h23.9L6.1-12.3h-23.8L0,0z M-0.2-49.2L-23.6-33L-47-49.2h-23.9l35.3,24.6l-11.9,8.3H0.2
						l-11.9-8.3l35.3-24.6C23.7-49.2-0.2-49.2-0.2-49.2z M-53.4-12.3L-71.1,0h23.9l17.7-12.3H-53.4z"/>
				</g>
				<g id="g64" transform="translate(7.2368,3.8089)">
					<path id="path66" class="st2" d="M0,0c-0.9,0-1.7,0.3-2.4,1s-1,1.6-1,2.8V13h3V3.8C-0.4,3.3-0.3,3,0,3s0.4,0.3,0.4,0.8v2.3
						c0,1.7,0.7,3.3,2.1,4.7C3.9,12.2,5.6,13,7.6,13c2,0,3.7-0.7,5.1-2.1s2.1-3,2.1-4.7v-9.9h-3v9.1c0,1.4-0.4,2.5-1.2,3.3
						C9.7,9.5,8.8,9.9,7.6,9.9c-1.2,0-2.1-0.4-3-1.2C3.8,7.9,3.4,6.7,3.4,5.3V3.8c0-1.2-0.3-2.1-1-2.8C1.8,0.3,0.9,0,0,0 M0-3.8
						c-2,0-3.7,0.7-5.1,2.1c-1.4,1.4-2.1,3-2.1,4.7V13h3V3.8c0-1.4,0.4-2.5,1.2-3.3C-2.1-0.4-1.1-0.8,0-0.8c1.1,0,2.1,0.4,3,1.2
						c0.8,0.8,1.2,1.9,1.2,3.3v1.5c0,1.2,0.3,2.1,1,2.8c0.7,0.7,1.5,1,2.4,1c0.9,0,1.7-0.3,2.4-1c0.7-0.7,1-1.6,1-2.8v-9.1H8v9.1
						c0,0.5-0.1,0.8-0.4,0.8S7.2,5.8,7.2,5.3V3c0-1.7-0.7-3.3-2.1-4.7C3.7-3.1,2-3.8,0-3.8"/>
				</g>
				<g id="g68" transform="translate(11.4265,22.0913)">
					<path id="path70" class="st2" d="M0,0v9.9h3V3c0.5,0,0.8,0.3,0.8,0.8v8.4h3V3c0-2-1-3-3-3H0z M-0.8,0h-3.8c-2,0-3,1-3,3v9.1h3
						V3.8C-4.6,3.3-4.3,3-3.8,3v6.9h3C-0.8,9.9-0.8,0-0.8,0z M-4.6-3.8c-4.6,0-6.9,2.3-6.9,6.9v9.1h3V3c0-2.5,1.3-3.8,3.8-3.8h8.4
						c2.5,0,3.8,1.3,3.8,3.8v9.1h3V3c0-4.6-2.3-6.9-6.9-6.9C3.8-3.8-4.6-3.8-4.6-3.8z"/>
				</g>
				<g id="g72" transform="translate(6.8559,39.612)">
					<path id="path74" class="st2" d="M0,0c-2,0-3,1-3,3v9.1h3V3.8C0,3.3,0.3,3,0.8,3h6.9c0.5,0,0.8,0.3,0.8,0.8v1.5H7.6V3.8h-3v4.6
						h6.9V3c0-2-1-3-3-3H0z M0-3.8c-4.6,0-6.9,2.3-6.9,6.9v9.1h3V3c0-2.5,1.3-3.8,3.8-3.8h8.4c2.5,0,3.8,1.3,3.8,3.8v6.1H3.8V3.8h-3
						v8.4h14.5V3c0-4.6-2.3-6.9-6.9-6.9H0z"/>
				</g>
				<g id="g76" transform="translate(11.6805,64.2426)">
					<path id="path78" class="st2" d="M0,0l3.6-1.4v2.8L0,0z M6.6-1.9H5l5.5-2.2v-3L-7.4-0.5C-7.7-0.4-7.9-0.3-7.9,0
						s0.2,0.4,0.5,0.5l14,5.3C6.6,5.8,6.6-1.9,6.6-1.9z M7.4-1.9v9L-8.1,1c-0.3-0.2-0.5-0.5-0.5-1c0-0.4,0.2-0.8,0.5-1l18.5-6.9v-3
						L-9.1-3.8C-10.8-3-11.7-1.7-11.7,0c0,1.9,0.8,3.2,2.5,3.8l19.6,7.4V-1.9C10.4-1.9,7.4-1.9,7.4-1.9z"/>
				</g>
			</g>
		</g>
	</g>
</g>
</svg>
