<?xml version="1.0" encoding="utf-8"?>
<!-- Generator: Adobe Illustrator 27.4.1, SVG Export Plug-In . SVG Version: 6.00 Build 0)  -->
<svg version="1.1" id="图层_1" xmlns="http://www.w3.org/2000/svg" xmlns:xlink="http://www.w3.org/1999/xlink" x="0px" y="0px"
	 viewBox="0 0 530.3 98.5" style="enable-background:new 0 0 530.3 98.5;" xml:space="preserve">
<style type="text/css">
	.st0{fill:#007544;}
	.st1{fill:#FED01B;}
	.st2{fill:#BA2318;}
	.st3{fill:#0A2A8D;}
	.st4{fill:#27272B;}
</style>
<ellipse class="st0" cx="25.1" cy="59.2" rx="25.1" ry="11.2"/>
<path class="st1" d="M95,77.7c0,6.2-11.2,11.2-25.1,11.2s-25.1-5-25.1-11.2S56.1,66.5,70,66.5C83.8,66.5,95,71.5,95,77.7z"/>
<path class="st2" d="M98.1,70.4C95,57.8,84.1,43.9,70,50c11.5-26.5,33.2-22.3,40.8-13.3C116.6,43.8,116.5,67.9,98.1,70.4L98.1,70.4z
	"/>
<path class="st3" d="M53.9,50.1c-3-12.6-14-26.4-28.1-20.4C37.3,3.1,59,7.4,66.5,16.4C72.4,23.5,72.3,47.6,53.9,50.1z"/>
<g>
	<g>
		<path class="st4" d="M147.5,0c-3.7,0-7.4,3.1-8,6.9v0.2l-0.1,0.1v0.2l-0.1,0.1v0.1l-0.1,0.1V8l-0.1,0.1v0.2L139,8.5l0,0.3v0.4
			l-0.1,0.5l-0.1,0.5l-0.1,0.5l-0.1,0.5l-0.1,0.5l-0.1,0.6l-0.1,0.5L138,14l-0.1,0.6l-0.1,0.5l-0.1,0.5l-0.1,0.5l-0.1,0.5l-0.1,0.5
			l-0.1,0.5l-0.1,0.4l-0.1,0.5V19l-0.1,0.1v0.3l-0.1,0.2v0.3l-0.1,0.1v0.1c-0.1,1.7,0.2,4,0.7,4.4c0.7,3.7,12.9,20.8,12.5,23.4
			c-0.3,2.6-1.8,10.3-1.8,10.3c-0.4,2.6-2.2,4.7-4.8,4.7s-4.3-2.1-3.9-4.7l2.3-12.7h-9.1l-3.1,17.7c-0.6,3.6,1.8,6.4,5.4,6.4h13
			c3.6,0,7-2.8,7.7-6.4c0,0,3.3-16.5,3.3-17.7s-0.3-1.3-0.3-1.3c0-1.3-10.9-19.4-12-20.1c-0.5-0.3-0.9-2.1-0.9-3.1
			c0-1.1,1.4-8.3,1.4-8.3c0.4-2.6,2.9-4.7,5.4-4.7c2.6,0,3.6,2.1,3.2,4.7l-2,11.4h9.2l3.2-17.2c0.7-3.8-1.7-6.9-5.4-6.9L147.5,0
			L147.5,0z M172.5,0l-10.9,63.1c-0.6,3.6,1.8,6.4,5.4,6.4h13c3.6,0,7.1-2.8,7.7-6.4L199.3,0h-8.2L180,61.4c-0.2,0.9-1,1.6-1.9,1.6
			h-6.5c-0.9,0-1.5-0.7-1.4-1.6l11-61.4H172.5z M203.8,0l-13.1,69.6h8.7l6-31.5h11.1c3.6,0,7-2.9,7.7-6.4L229,7
			c0.7-3.8-1.7-6.9-5.4-6.9C223.4,0,203.8,0,203.8,0z M234.8,0l-13.6,69.6h19.6l1.4-8.6h-9.7l3.9-23.5h9.7l1.4-7.3h-9.7l4.3-21.6
			h9.7l1.4-8.6H234.8L234.8,0z M258.2,0l-13.1,69.6h8.7l5.9-31.5h6.2c0.8,0.8,0.9,2.2,1,2.9c0.2,1,0.3,2.3,0.2,3.4
			c-0.1,1-4.8,25.3-4.8,25.3h8.7c0,0,4.9-26.4,4.9-26.8c0-0.4,0-1.8-0.5-2.5c-0.3-0.5-0.9-1.6-1.5-2c-1.2-0.8-2.6-1.3-2.6-1.3h-0.6
			c2.5-1,7.2-2.6,7.7-5.3l4.8-24.7c0.7-3.8-1.7-6.9-5.4-6.9C277.8,0,258.2,0,258.2,0z M304.8,0l-13.1,69.6h10l8.1-40.3l3.2,40.3h8.7
			l13-69.6h-10L318,36.4L313.5,0H304.8z M339.3,0l-13.1,69.6h8.7L348,0H339.3z M352.5,0l-13.1,69.6h10.1l8.1-40.3l3.2,40.3h8.7
			L382.6,0h-10.1l-6.7,36.4L361.3,0H352.5z M386.3,0l-1.6,8.6h5.4l-10.7,61h9.9l10.9-61h5.2l1.4-8.6L386.3,0L386.3,0z M410.2,0
			l-13.6,69.6h19.6l1.4-8.6h-9.7l4-23.5h9.7l1.4-7.3h-9.7l4.2-21.6h9.7l1.4-8.6H410.2L410.2,0z M432.3,0l-13.1,69.6h10.1l8.1-40.3
			l3.2,40.3h8.7l13-69.6h-10.1l-6.7,36.4L441,0H432.3z M466.9,0l-13.1,69.6h19.8c3.6,0,7.1-2.8,7.7-6.4L491.8,7
			c0.7-3.8-1.7-6.9-5.4-6.9L466.9,0L466.9,0z M504.2,0c-3.7,0-7.3,3.1-8,6.9l-9.7,56.2c-0.6,3.6,1.7,6.4,5.3,6.4h14.3
			c3.6,0,7.1-2.8,7.7-6.4l10.5-56.2c0.7-3.8-1.7-6.9-5.4-6.9C518.9,0,504.2,0,504.2,0z M474.3,8h4c2.6,0,4.3,2.1,3.9,4.7l-8.6,45.5
			c-0.4,2.6-2.9,4.7-5.5,4.7h-3.9L474.3,8z M509.3,8h0.3c2.6,0,4.2,2.1,3.8,4.7l-8.2,45.5c-0.4,2.6-2.8,4.7-5.4,4.7
			s-3.6-2.1-3.2-4.7l8.1-45.5l0.1-0.2l0.1-0.2L505,12l0.1-0.2l0.1-0.3l0.1-0.2l0.1-0.2l0.1-0.2l0.1-0.2l0.1-0.2l0.1-0.2l0.1-0.2
			L506,10l0.1-0.2l0.1-0.2l0.2-0.1l0.1-0.1l0.1-0.1l0.2-0.1l0.2-0.1l0.1-0.1l0.2-0.1l0.2-0.1l0.2-0.1l0.1-0.1l0.3-0.1l0.2-0.1h0.2
			l0.2-0.1h0.3L509.3,8L509.3,8z M212.1,8.3h4.2c0.9,0,2.9,2.1,2.7,3.1l-3.6,17.2c-0.2,0.9-1.4,2.9-2.2,2.9H208l-0.1-0.1h-0.3v-0.1
			h-0.1l-0.1-0.1h-0.1l-0.1-0.1l-0.1-0.1H207v-0.1l-0.1-0.1L207,31v-0.1l-0.1-0.1l-0.1-0.1v-0.1l-0.1-0.1v-0.1l-0.1-0.1v-0.1
			c0-0.1,0-0.3,0-0.4l4.1-21C211.2,8.5,211.7,8.3,212.1,8.3L212.1,8.3z M266.3,8.3h4.2c0.9,0,2.9,2.1,2.7,3.1l-3.6,17.1
			c-0.2,0.9-2.4,3-3.3,3h-3.7c-0.8,0-1.3-0.5-1.4-1.2c0-0.1,0-0.3,0-0.4l4-21l0.1-0.1l0.1-0.1l0.1-0.1h0.1l0.1-0.1l0.1-0.1h0.1
			l0.1-0.1h0.1l0.1-0.1L266.3,8.3L266.3,8.3L266.3,8.3z M128.2,75.6v22.8h398V75.6H128.2L128.2,75.6z M418.8,78h3.4
			c0.8,0,1.4,0.7,1.2,1.5l-0.8,3.8h-1.9l0.4-2.5c0.1-0.6-0.2-1-0.8-1c-0.6,0-1.1,0.5-1.2,1l-0.3,1.8c-0.1,0.1,0.1,0.6,0.2,0.7
			c0.3,0.1,2.7,4.2,2.7,4.5c0.1,0.1,0.1,0.2,0.1,0.3c-0.1,0.5-0.8,3.9-0.8,3.9c-0.1,0.8-0.9,1.4-1.7,1.4h-2.9
			c-0.8,0-1.3-0.7-1.2-1.4l0.7-3.9h2l-0.5,2.8c-0.1,0.6,0.2,1.1,0.8,1.1c0.6,0,1.2-0.5,1.2-1.1l0.4-2.3c-0.4-0.9-2.8-4.4-3-5.2
			c-0.1-0.1-0.2-0.6-0.1-1c0-0.4,0.6-2.9,0.6-2.9h0.1v-0.2l0.1-0.1v-0.1l0.1-0.1v0l0.1-0.1v-0.1l0.1-0.1l0.1-0.1v-0.1h0.1l0.1-0.1
			l0.1-0.1l0.1-0.1v-0.1h0.1l0.1-0.1l0.1-0.1L418.8,78l0-0.2h0.1l0.1-0.1L418.8,78L418.8,78L418.8,78z M434.7,78h2.5l0.3,5.8
			l3.2-5.8h2.5l-5.1,8.9l-1.2,6.5h-2.2l1.1-7L434.7,78z M457.4,78h3.4c0.8,0,1.4,0.7,1.2,1.5l-0.8,3.8h-1.9l0.4-2.5
			c0.1-0.6-0.2-1-0.8-1c-0.6,0-1.2,0.5-1.2,1l-0.3,1.8c-0.1,0.1,0.1,0.6,0.2,0.7c0.2,0.1,2.7,4.2,2.7,4.5c0.1,0.1,0.1,0.2,0.1,0.3
			c-0.1,0.5-0.7,3.9-0.7,3.9c-0.1,0.8-0.9,1.4-1.7,1.4h-3c-0.8,0-1.3-0.7-1.2-1.4l0.7-3.9h2l-0.5,2.8c-0.1,0.6,0.3,1.1,0.8,1.1
			c0.6,0,1.1-0.5,1.2-1.1l0.4-2.3c-0.4-0.9-2.8-4.4-3-5.2c-0.1-0.1-0.2-0.6-0.1-1c0-0.4,0.6-2.9,0.6-2.9l0.1-0.1v-0.1l0.1-0.1v-0.1
			l0.1-0.1v0l0.1-0.1v-0.1l0.1-0.1l0.1-0.1v-0.1h0.1l0.1-0.1l0.1-0.1l0.1-0.1l0.1-0.1l0.1-0.1l0.1-0.1L457.4,78l0-0.2h0.1l0.1-0.1
			L457.4,78L457.4,78L457.4,78z M473.5,78h4.6l-0.3,1.8h-1.2l-2.4,13.6H472l2.4-13.6h-1.2L473.5,78L473.5,78z M491.7,78h4.2
			l-0.3,1.8h-2.1l-1,4.9h2.2l-0.3,1.6h-2.1l-0.9,5.2h2.1l-0.3,1.9h-4.4L491.7,78L491.7,78z M508.8,78h2.6l0.4,8.9l3.9-8.8l2.5-0.1
			l-2.6,15.4h-1.9l1.2-8.2l-3.5,8.2H510l-0.4-8.4l-1.5,8.4h-2.3L508.8,78L508.8,78z M136.7,78.6h4.1l-0.3,1.9h-2.2l-0.9,4.8h2.1
			l-0.3,1.6H137l-0.8,5.2h2.1L138,94h-4.4L136.7,78.6z M155.8,78.6h1.9l1,8.1l1.5-8.1h2.3l-3,15.5h-1.9l-0.8-9l-1.8,9h-2.3
			L155.8,78.6L155.8,78.6z M176.6,78.6h4.6l-0.3,1.9h-1.2L177.2,94H175l2.4-13.6h-1.2C176.2,80.5,176.6,78.6,176.6,78.6z
			 M196.7,78.6h4.2l-0.3,1.9h-2.1l-1,4.8h2.1l-0.3,1.6h-2.1l-0.9,5.2h2.1l-0.3,1.9h-4.4L196.7,78.6z M216.3,78.6h4.4
			c0.8,0,1.3,0.7,1.2,1.6l-1,5.5c-0.1,0.6-1.2,1.1-1.7,1.3h0.3l0,0h0.3l0.1,0.1h0.2v0.1h0.1v0.1h0.1c0.1,0.2,0.1,0.7,0.1,0.8
			c0,0.1-1.1,6.1-1.1,6.1h-2c0,0,1.1-5.4,1.1-5.6s0-0.5-0.1-0.8c0-0.2,0-0.4-0.2-0.6h-1.4l-1.3,7h-2C213.3,94,216.3,78.6,216.3,78.6
			z M236.1,78.6h4.6l-0.3,1.9h-1.2L236.8,94h-2.2l2.4-13.6h-1.2C235.7,80.5,236.1,78.6,236.1,78.6z M259.2,78.6h2.6L261,94h-2.6
			l0.3-3.6h-1.6l-1.3,3.6h-2.4C253.4,94,259.2,78.6,259.2,78.6z M277.6,78.6h2l-3,15.5h-1.9L277.6,78.6z M295.5,78.6h1.9l1,8.1
			l1.5-8.1h2.2L299.3,94h-2l-0.7-9l-1.8,9h-2.3L295.5,78.6L295.5,78.6z M318.4,78.6h2.6l0.4,9l4-8.9h2.5L325.2,94h-1.9l1.2-8.1
			L321,94h-1.4l-0.4-8.4l-1.5,8.4h-2.2L318.4,78.6L318.4,78.6z M343.6,78.6h4.1l-0.3,1.9h-2.2l-0.9,4.8h2.1l-0.3,1.6h-2.2l-0.9,5.2
			h2.2l-0.3,1.9h-4.4L343.6,78.6L343.6,78.6z M363.7,78.6h1.9l1,8.1l1.5-8.1h2.2L367.5,94h-1.9l-0.8-9l-1.8,9h-2.3L363.7,78.6
			L363.7,78.6z M384.2,78.6h4.6l-0.3,1.9h-1.2L384.9,94h-2.2l2.4-13.6h-1.2L384.2,78.6L384.2,78.6z M218.1,80.4
			c-0.1,0-0.2,0.1-0.3,0.1l-0.9,4.7v0.1c0,0.1,0.1,0.3,0.3,0.3h0.8c0.2,0,0.7-0.4,0.8-0.6l0.8-3.8c0-0.2-0.3-0.7-0.6-0.7L218.1,80.4
			L218.1,80.4z M259.2,85.1l-1.5,3.9h1.1L259.2,85.1z M523.5,65.5h-1.8v4.1h-1.3v-4.1h-1.9v-0.8h5V65.5L523.5,65.5z M530.3,69.6H529
			v-4l-1.1,4h-1.3l-1.1-4v4h-1.3v-4.9h1.9l1.2,3.8l1.2-3.8h1.9L530.3,69.6L530.3,69.6z"/>
	</g>
</g>
</svg>
