<?xml version="1.0" encoding="utf-8"?>
<!-- Generator: Adobe Illustrator 27.4.1, SVG Export Plug-In . SVG Version: 6.00 Build 0)  -->
<svg version="1.1"
	 id="svg2" xmlns:dc="http://purl.org/dc/elements/1.1/" xmlns:sodipodi="http://sodipodi.sourceforge.net/DTD/sodipodi-0.dtd" xmlns:inkscape="http://www.inkscape.org/namespaces/inkscape" xmlns:svg="http://www.w3.org/2000/svg" xmlns:cc="http://creativecommons.org/ns#" xmlns:rdf="http://www.w3.org/1999/02/22-rdf-syntax-ns#"
	 xmlns="http://www.w3.org/2000/svg" xmlns:xlink="http://www.w3.org/1999/xlink" x="0px" y="0px" viewBox="0 0 180 66.4"
	 style="enable-background:new 0 0 180 66.4;" xml:space="preserve">
<style type="text/css">
	.st0{fill:none;}
	.st1{fill:#27272B;}
</style>
<sodipodi:namedview  bordercolor="#666666" borderopacity="1" gridtolerance="10" guidetolerance="10" id="namedview50" inkscape:current-layer="svg2" inkscape:cx="90.478256" inkscape:cy="42.396755" inkscape:pageopacity="0" inkscape:pageshadow="2" inkscape:window-height="2065" inkscape:window-maximized="1" inkscape:window-width="3840" inkscape:window-x="0" inkscape:window-y="0" inkscape:zoom="12.153842" objecttolerance="10" pagecolor="#ffffff" showgrid="false">
	</sodipodi:namedview>
<rect id="rect2" x="-261" y="363.6" class="st0" width="172.5" height="66.4"/>
<g id="g14" transform="translate(-35.237722,-0.01169924)">
	<g id="g20" transform="translate(44.7168,52.9789)">
		<path id="path22" inkscape:connector-curvature="0" class="st1" d="M50.2-52.8l6.1,6.8c0,2.7,0,5.5,0,8.2c-2.9,0-5.8,0-8.7,0
			c0-2,0-3.9,0-5.9c-2.3,0-4.6,0-6.9,0c0,3.2,0,6.5,0,9.7c0.7,0,1.4,0,2.1,0c0,2.9,0,5.8,0,8.7c-1.7,0-3.3,0-5,0
			c-0.2,0-0.3-0.2-0.4-0.3c-2-2.1-4.1-4.1-6-6.2c0-4.6,0-9.3,0-13.9l6.2-7.1L50.2-52.8z"/>
	</g>
	<g id="g24" transform="translate(52.2605,20.1686)">
		<path id="path26" inkscape:connector-curvature="0" class="st1" d="M52.1,21c0-13.7,0-27.4-0.1-41c3.1,0,6.2,0,9.4,0
			c0,13,0,26.1,0.1,39.1c0.9,0,1.7,0,2.6,0c0,3,0,5.9,0,8.9c-1.6,0-3.2,0-4.8,0c-0.2,0-0.3-0.1-0.4-0.2L52.1,21z"/>
	</g>
	<g id="g28" transform="translate(65.6484,53.0148)">
		<path id="path30" inkscape:connector-curvature="0" class="st1" d="M55.4-52.9c3.1,0,6.2,0,9.4,0c0,13.7,0.1,27.4,0.1,41.1
			c-2.2,2.4-4.6,4.6-6.8,7c-1.7,0-3.3,0-5,0c0-3,0-5.9,0-8.9c0.8,0,1.6,0,2.5,0C55.4-26.8,55.4-39.8,55.4-52.9"/>
	</g>
	<g id="g32" transform="translate(75.5585,53.0319)">
		<path id="path34" inkscape:connector-curvature="0" class="st1" d="M57.9-52.9c3.1,0,6.2,0,9.4,0c0,16,0.1,32,0.1,48
			c-3.1,0-6.2,0-9.4,0C57.9-20.9,57.9-36.9,57.9-52.9"/>
	</g>
	<g id="g36" transform="translate(90.4033,53.0555)">
		<path id="path38" inkscape:connector-curvature="0" class="st1" d="M61.6-53c2.3,2.3,4.6,4.5,6.8,6.7v18.2
			c-2.3,2.3-4.5,4.5-6.8,6.8c-2.2,0-4.5,0-6.7,0c0-3,0-6.1,0-9.1c1.4,0,2.7,0,4,0c0-4.5,0-9,0-13.5c-1.4,0-2.7,0-4,0
			c0-3,0-6.1,0-9.1H61.6z"/>
	</g>
	<g id="g40" transform="translate(98.3076,53.071)">
		<path id="path42" inkscape:connector-curvature="0" class="st1" d="M63.6-53c6.9,0,13.7,0,20.6,0c0,3,0,6.1,0,9.1
			c-3.7,0-7.5,0-11.2,0c0,9.9,0,19.9,0.1,29.8c3.8,0,7.5,0,11.2,0c0,3,0,6.1,0,9.1c-6.9,0-13.7,0-20.6,0C63.6-21,63.6-37,63.6-53"/>
	</g>
	<g id="g44" transform="translate(117.3143,53.1036)">
		<path id="path46" inkscape:connector-curvature="0" class="st1" d="M68.3-53.1c3.1,0,6.2,0,9.4,0c0,16,0.1,32,0.1,48
			c-3.1,0-6.2,0-9.4,0C68.4-21.1,68.3-37.1,68.3-53.1"/>
	</g>
	<g id="g48" transform="translate(133.4452,33.8042)">
		<path id="path50" inkscape:connector-curvature="0" class="st1" d="M72.3-9.7C74.2-7.8,76.1-5.9,78-4c0.1,6.1,0,12.1,0,18.2
			c-3.2,0-6.3,0-9.5,0c0-6.4,0-12.8,0-19.2c-1.6,0-3.1,0-4.7,0c0-3,0-6.1,0-9.1c1.6,0,3.1,0,4.7,0c0-3.5,0-7.1,0-10.6
			c-1.6,0-3.1,0-4.7,0c0-3,0-6.1,0-9.1h7.3l6.9,6.9c0,3.8,0,7.5,0,11.3L72.3-9.7z"/>
	</g>
	<g id="g52" transform="translate(107.8365,38.5277)">
		<path id="path54" inkscape:connector-curvature="0" class="st1" d="M65.9-20.3c2.3,0,4.6,0,6.8,0c0,3,0,6.1,0,9.1
			c-2.3,0-4.5,0-6.8,0C66-14.2,66-17.3,65.9-20.3"/>
	</g>
	<g id="g56" transform="translate(44.6569,14.5637)">
		<path id="path58" inkscape:connector-curvature="0" class="st1" d="M50.2,33.6H37.5l-6.1-6.8c0-2.7,0-5.5,0-8.2c2.9,0,5.8,0,8.7,0
			c0,2,0,3.9,0,5.9c2.3,0,4.6,0,6.9,0V13.2c-0.5,0-1,0-1.6,0c0-2.9,0-5.8,0-8.7c1.5,0,3,0,4.5,0c0.2,0,0.3,0.1,0.4,0.2
			c2,2.1,4,4.1,6,6.1c0.1,0.1,0.2,0.2,0.1,0.4c0,5.1,0,10.2,0,15.3L50.2,33.6z"/>
	</g>
	<g id="g60" transform="translate(58.3586,0.0198)">
		<path id="path62" inkscape:connector-curvature="0" class="st1" d="M53.6,66.4c-4.8,0-9.5,0-14.3,0c-0.9,0-1.9-0.3-2.6-0.9
			c-0.5-0.4-0.7-1.1-0.7-1.7c0-2.8,0-5.7,0-8.5c0-1,0.8-1.9,1.7-2.2c0.7-0.3,1.4-0.3,2.1-0.3c4.6,0,9.2,0,13.8,0c0,0.8,0,1.7,0,2.5
			c-4.8,0-9.6,0-14.4,0c0,2.9,0,5.7,0,8.6c3.8,0,7.5,0,11.3,0c0-1,0-2,0-3c-1.8,0-3.6,0-5.4,0c0-0.8,0-1.7,0-2.5c2.9,0,5.7,0,8.6,0
			L53.6,66.4z"/>
	</g>
	<g id="g64" transform="translate(63.2974,8.9267)">
		<path id="path66" inkscape:connector-curvature="0" class="st1" d="M54.8,46.3c0,1,0,2,0,3c3.6,0,7.2,0,10.7,0c0-1,0-2,0-3
			C62,46.3,58.4,46.3,54.8,46.3 M51.6,43.8c4.6,0,9.2,0,13.8,0c1.2,0,2.4,0.5,3,1.5c0.3,0.6,0.3,1.3,0.3,1.9c0,0.8,0,1.6,0,2.4
			c-0.1,1-0.9,1.7-1.8,2C66,52,65,51.8,64,51.9l5,5.5h-3.9c-1.7-1.9-3.3-3.7-5-5.6h-5.3v5.6h-3.2C51.7,57.4,51.6,43.8,51.6,43.8
			L51.6,43.8z"/>
	</g>
	<g id="g68" transform="translate(88.5909,0.0718)">
		<path id="path70" inkscape:connector-curvature="0" class="st1" d="M61.1,66.2c-1.8-3.7-3.7-7.4-5.5-11.1h-1.4
			c-1.8,3.7-3.6,7.4-5.5,11.1H45c2.2-4.6,4.5-9.1,6.7-13.7H58c2.2,4.5,4.5,9.1,6.8,13.6L61.1,66.2z"/>
	</g>
	<g id="g72" transform="translate(92.7168,10.9988)">
		<path id="path74" inkscape:connector-curvature="0" class="st1" d="M62.2,41.7c5.4,0,10.7,0,16.1,0c0,0.8,0,1.7,0,2.5
			c-4.3,0-8.6,0-12.9,0c0,1,0,2,0,3c3.8,0,7.5,0,11.3,0c0,0.8,0,1.7,0,2.5c-3.8,0-7.5,0-11.3,0c0,1.9,0,3.7,0,5.6
			c-1.1,0-2.1,0-3.2,0C62.2,50.8,62.2,46.2,62.2,41.7"/>
	</g>
	<g id="g76" transform="translate(121.837,0.1357)">
		<path id="path78" inkscape:connector-curvature="0" class="st1" d="M69.4,66.1h-4.6c-1.7-1.6-3.3-3.2-5-4.8
			c-1.7,1.6-3.3,3.3-4.9,4.8h-4.6l7.1-7.3c-2.2-2.1-4.3-4.2-6.5-6.4h4.7l4.3,4.2c1.5-1.4,2.8-2.8,4.3-4.2h4.6
			c-2.2,2.2-4.4,4.3-6.5,6.5L69.4,66.1z"/>
	</g>
	<g id="g80" transform="translate(5.9731,44.6838)">
		<path id="path82" inkscape:connector-curvature="0" class="st1" d="M40.5-34.1L40.5-34.1c1.9-4,4.1-6,6.4-6
			c1.9,0.1,3.7,1.6,5.2,4.4c1.4,2.7,2.5,6.5,3.3,11c0,0.1-0.1,0.3-0.2,0.3c-0.1,0-0.3-0.1-0.3-0.2c-1.4-9.1-4.5-14.8-7.9-15
			c-2-0.1-4.1,1.9-5.9,5.6c-0.1,0.1-0.2,0.2-0.4,0.1C40.5-33.9,40.5-34,40.5-34.1"/>
	</g>
	<g id="g84" transform="translate(17.2877,17.378)">
		<path id="path86" inkscape:connector-curvature="0" class="st1" d="M43.3,27.3L43.3,27.3c0.5-2.9,0.8-6,0.9-9.1
			c0-0.2,0.1-0.3,0.3-0.3s0.3,0.1,0.3,0.3c-0.1,3.1-0.5,6.2-0.9,9.1c0,0.2-0.2,0.3-0.3,0.2C43.4,27.5,43.3,27.4,43.3,27.3"/>
	</g>
	<g id="g88" transform="translate(2.4467,24.2714)">
		<path id="path90" inkscape:connector-curvature="0" class="st1" d="M39.6,11.8c0-0.1,0-0.2,0-0.2c0-0.1,0-0.3,0-0.3s0,0.1,0,0.3
			l0,0c0,0.1,0.2,0.2,0.2,0.2c0,14.7,3.9,26.3,8.9,26.4c1.7,0,3.5-1.3,5.1-4s2.9-6.5,3.9-11c0-0.1,0.2-0.2,0.3-0.2s0.2,0.2,0.2,0.3
			c-1,4.6-2.3,8.5-3.9,11.2c-1.7,2.9-3.6,4.3-5.5,4.3c-2.6-0.1-4.9-3-6.6-8.1C40.4,25.7,39.6,19,39.6,11.8"/>
	</g>
	<g id="g92" transform="translate(13.7124,20.3103)">
		<path id="path94" inkscape:connector-curvature="0" class="st1" d="M42.4,20.7l5.5,7.2l-3.4-8.5L47,17l-3.5,0.8L38,10.6l3.4,8.5
			l-2.5,2.4L42.4,20.7z"/>
	</g>
	<g id="g96" transform="translate(15.9858,33.9481)">
		<path id="path98" inkscape:connector-curvature="0" class="st1" d="M43-10l3.1,0.6l0.3,2.1c0,0.3-0.1,0.4-0.4,0.4l-2.1-0.4
			c-0.3-0.1-0.5-0.3-0.6-0.5L43-10z M34.2,14.3l3.1,0.6c1,0.2,2,1.2,2.1,2.2L40,21c0.1,0.7-0.6,1.1-1.4,1l-1-0.2
			c-0.7-0.1-1.5-0.9-1.6-1.5l-0.7-4.1l-0.4-0.1c-0.4-0.1-0.7,0.2-0.7,0.6l0.7,4.6L33.2,21l-0.8-5.1C32.6,14.9,33.3,14.1,34.2,14.3
			 M37.4,4.1l0.3,1.6l-6.8-1.2l-0.3-1.7L37.4,4.1z M29.1-6.8l-0.3-1.7l4.4,0.8c0.5,0.1,0.7-0.1,0.6-0.6l-0.5-2.9l-5.2-1l-0.3-1.7
			l6.8,1.2l0,0l0.9,5.6c0.1,0.8-0.4,1.3-1.3,1.1C34.4-5.8,29.1-6.8,29.1-6.8z M29.5-14.8l-1.8-0.3l-1.1-7l11.8,2.2l0.9,5.8l-1.6-0.3
			L37-18.5l-3.4-0.6l0.5,3.4L32.5-16L32-19.4L28.6-20C28.7-20.2,29.5-14.8,29.5-14.8L29.5-14.8z M30.8-14.6l-0.6-4l0.8,0.1l0.5,3.2
			l4.2,0.8l-0.5-3.2l0.8,0.1l0.6,4C36.6-13.5,30.8-14.6,30.8-14.6z M28-5.8L28-5.8c0.1,0.1,0,0.3,0.1,0.4l0.5,3.3
			c-0.7-0.1-0.8-1-1-2.3l-0.2-1.5L23-6.7l0.3,2c0.5,4.9,3,6.7,6,7.3l1,5.9l5.2,0.9l0.1,0.5c0.1,0.5,0.2,0.5-0.4,0.4l-4.7-0.9
			l0.7,4.3l0.3,0.1c-0.1,0.3-0.2,0.7-0.1,1.1l1.2,7.4l3.7,0.7l0.3-0.5c0.5,0.4,1.1,0.7,1.6,0.8l0.6,0.1c2.2,0.4,2.8-1.7,2.6-2.6
			l-0.7-4.2c-0.1-0.8-0.6-1.6-1.3-2.2c0.5-0.6,0.8-1.4,0.7-1.9l-0.8-4.7l-1.2,0.5l0.7,4.3c0.1,0.6-0.1,1-0.6,1.1
			c-0.1,0-5.9-1.1-5.9-1.1l-0.2-1.5l4.4,0.8c0.6,0.1,0.7-0.1,0.6-0.6l-0.5-2.9l-5.2-1l-0.3-1.7L37,6.8l1.6-1.4l-1.8-5l0.4,2.4l0,0
			l-8.1-1.5c-2.1-0.4-4-2.6-4.3-4.5l-0.3-2l1.6,0.3l0.2,1.5c0.2,1.3,1.5,2.8,2.9,3.1l0.9,0.2L29.5-4c-0.1-0.8,0.4-1.3,1.3-1.1
			l3.8,0.7c0.7,0.1,1.2,0.5,1.5,1.1h0.1l1.5,2l-0.2-1.2C37.4-3.1,36.9-4.2,36-5c0.6-0.5,0.9-1.5,0.8-2l-0.7-4.2l3.7,0.7l0.5,3.1
			c0.3,1.6,2.1,3.5,3.9,3.8l2.5,0.5c1.7,0.3,3.1-0.9,2.8-2.5l-1.1-6.8l-7.7-1.4l-1-6.2c-0.1-0.5-0.6-1-1.2-1.1L26-23.4
			c-0.6-0.1-0.9,0.2-0.9,0.8L27-10.7l5.2,1l0.1,0.5c0.1,0.5,0.2,0.5-0.4,0.4l-4.7-0.9C27.3-10.1,28-5.8,28-5.8L28-5.8z M37.2,16.5
			H37l0.5,3.2c0,0.3,0.3,0.5,0.6,0.5c0.3,0.1,0.5-0.1,0.4-0.4L38.4,19l-0.2-1.3l-0.1-0.3C38,17,37.6,16.6,37.2,16.5 M34-3.1l-2-0.4
			c-0.6-0.1-0.7,0.1-0.6,0.6l0.5,3.1l3.5,0.7l-0.5-3.1C34.8-2.7,34.5-3,34-3.1 M33.2-2c0.5,0.1,0.4,0.3,0.5,0.8l0.1,0.5L33-0.8
			l-0.1-0.5C32.9-1.9,32.7-2.1,33.2-2"/>
	</g>
	<g id="g100" transform="translate(14.8581,23.0213)">
		<path id="path102" inkscape:connector-curvature="0" class="st1" d="M42.7,14.6l1.8-0.5v-0.3l-0.4-0.1c-0.3-0.1-0.6-0.3-0.6-0.6
			l-0.3-1.8c0-0.3,0.1-0.5,0.4-0.4l4.8,0.9c0.3,0.1,0.6,0.3,0.6,0.6l0.3,1.8c0,0.3-0.1,0.5-0.4,0.4l-0.6-0.1l0.6,3.5l0.7,0.1
			c1.8,0.3,3.2-0.9,2.9-2.6L52,12.1c-0.3-1.7-2.2-3.6-4-3.9l-5.1-0.9C41.1,7,39.7,8.2,40,9.9l0.2,1.1L42.7,14.6z"/>
	</g>
	<g id="g104" transform="translate(15.7287,21.0101)">
		<path id="path106" inkscape:connector-curvature="0" class="st1" d="M42.9,19.1c0.2,0.1,0.3,0.2,0.6,0.2l0.6,0.1L43.9,18
			L42.9,19.1z"/>
	</g>
</g>
</svg>
