<?xml version="1.0" encoding="utf-8"?>
<!-- Generator: Adobe Illustrator 27.4.1, SVG Export Plug-In . SVG Version: 6.00 Build 0)  -->
<svg version="1.1"
	 id="svg2" xmlns:svg="http://www.w3.org/2000/svg" xmlns:rdf="http://www.w3.org/1999/02/22-rdf-syntax-ns#" xmlns:cc="http://creativecommons.org/ns#" xmlns:dc="http://purl.org/dc/elements/1.1/" xmlns:inkscape="http://www.inkscape.org/namespaces/inkscape" xmlns:sodipodi="http://sodipodi.sourceforge.net/DTD/sodipodi-0.dtd"
	 xmlns="http://www.w3.org/2000/svg" xmlns:xlink="http://www.w3.org/1999/xlink" x="0px" y="0px" viewBox="0 0 576.4 79.3"
	 style="enable-background:new 0 0 576.4 79.3;" xml:space="preserve">
<style type="text/css">
	.st0{fill:#35353F;}
</style>
<sodipodi:namedview  bordercolor="#666666" borderopacity="1.0" fit-margin-bottom="0" fit-margin-left="0" fit-margin-right="0" fit-margin-top="0" id="base" inkscape:current-layer="layer1" inkscape:cx="253.41603" inkscape:cy="-45.303444" inkscape:document-units="px" inkscape:pageopacity="0.0" inkscape:pageshadow="2" inkscape:window-height="2065" inkscape:window-maximized="1" inkscape:window-width="3840" inkscape:window-x="0" inkscape:window-y="0" inkscape:zoom="2.4691406" pagecolor="#ffffff" showgrid="false">
	</sodipodi:namedview>
<g id="layer1" transform="translate(-75.679683,-200.09862)" inkscape:groupmode="layer" inkscape:label="Layer 1">
	<g id="g869">
		<path id="path3904" inkscape:connector-curvature="0" class="st0" d="M129.3,258l-11.2,20.9l-41.9-78.3h22.4L129.3,258z"/>
		<path id="path2987" inkscape:connector-curvature="0" class="st0" d="M120.9,231.9l16.8-31.3H160l-27.9,52.2L120.9,231.9z"/>
		<path id="path2989" inkscape:connector-curvature="0" class="st0" d="M165.7,200.6h19.6l-0.1,78.3h-19.6v-78.3H165.7z"/>
		<path id="path3908" inkscape:connector-curvature="0" class="st0" d="M193.7,200.6h19.6l-0.1,78.3h-19.6v-78.3H193.7z"/>
		<path id="path2991" inkscape:connector-curvature="0" class="st0" d="M218.8,220.2v-19.6h8.4c10.8,0,20,3.8,27.7,11.5
			c7.7,7.7,11.5,16.9,11.5,27.7s-3.8,20-11.5,27.7c-7.6,7.6-16.9,11.5-27.7,11.5h-8.4v-19.6h8.4c5.4,0,10-1.9,13.8-5.7
			c3.8-3.8,5.7-8.4,5.7-13.8s-1.9-10-5.7-13.8s-8.4-5.7-13.8-5.7L218.8,220.2L218.8,220.2z"/>
		<path id="path3916" inkscape:connector-curvature="0" class="st0" d="M274.9,200.6h19.6l-0.1,78.3h-19.6v-78.3H274.9z"/>
		<path id="path3914" inkscape:connector-curvature="0" class="st0" d="M300,200.6h30.7v19.6H300V200.6z"/>
		<path id="path3912" inkscape:connector-curvature="0" class="st0" d="M300,259.3h30.7v19.6H300V259.3z"/>
		<path id="path2993" inkscape:connector-curvature="0" class="st0" d="M300,229.9h30.7v19.6H300V229.9z"/>
		<path id="path3920" inkscape:connector-curvature="0" class="st0" d="M397.8,242.5h19.7c-0.6,9.6-4.4,17.9-11.4,24.9
			c-7.6,7.6-16.9,11.5-27.7,11.5c-10.8,0-20-3.8-27.7-11.5c-7-7-10.8-15.3-11.3-24.9H359c0.6,4.2,2.4,7.9,5.5,11
			c3.8,3.8,8.4,5.8,13.8,5.8s10-1.9,13.9-5.8C395.4,250.4,397.2,246.7,397.8,242.5L397.8,242.5z"/>
		<path id="path2995" inkscape:connector-curvature="0" class="st0" d="M359,236.9h-19.7c0.6-9.6,4.4-17.9,11.3-24.9
			c7.6-7.6,16.9-11.5,27.7-11.5c10.8,0,20,3.8,27.7,11.5c7,7,10.8,15.3,11.4,24.9h-19.7c-0.6-4.2-2.4-7.9-5.5-11.1
			c-3.8-3.8-8.5-5.7-13.9-5.7s-10,1.9-13.8,5.7C361.4,229,359.6,232.7,359,236.9L359,236.9z"/>
		<path id="path3924" inkscape:connector-curvature="0" class="st0" d="M426,200.6h19.6v78.3H426V200.6z"/>
		<path id="path2997" inkscape:connector-curvature="0" class="st0" d="M451.2,220.2v-19.6h10.5c6.7,0,12.5,2.4,17.3,7.2
			s7.2,10.5,7.2,17.3s-2.4,12.6-7.2,17.3c-4.8,4.8-10.5,7.2-17.3,7.2h-10.5V230h10.5c1.3,0,2.5-0.5,3.4-1.4c1-0.9,1.4-2.1,1.4-3.5
			c0-1.3-0.5-2.5-1.4-3.4c-1-0.9-2.1-1.4-3.4-1.4L451.2,220.2L451.2,220.2z"/>
		<path id="path3928" inkscape:connector-curvature="0" class="st0" d="M529.4,247.6l-16.8,31.3h-22.4l28-52.2L529.4,247.6z"/>
		<path id="path2999" inkscape:connector-curvature="0" class="st0" d="M537.6,252.3L521,221.4l11.2-20.9l41.9,78.3h-22.4l-3.7-7
			h-26l10.5-19.6L537.6,252.3L537.6,252.3z"/>
		<path id="path3934" inkscape:connector-curvature="0" class="st0" d="M616.2,259.1v19.6c-9.6-0.6-17.9-4.4-24.9-11.3
			c-7.6-7.6-11.5-16.9-11.5-27.7s3.8-20,11.5-27.7c7-7,15.3-10.8,24.9-11.3v19.6c-4.2,0.6-7.9,2.4-11,5.5c-3.8,3.8-5.8,8.5-5.8,13.9
			s1.9,10,5.8,13.8C608.3,256.7,612,258.6,616.2,259.1z"/>
		<path id="path3932" inkscape:connector-curvature="0" class="st0" d="M635.3,228.8c-0.7-1-1.5-2-2.5-3c-3.2-3.1-6.9-5-11.1-5.5
			v-19.6c9.6,0.6,17.9,4.4,24.9,11.3c1.9,1.9,3.5,3.8,4.9,5.9L635.3,228.8z"/>
		<path id="path3001" inkscape:connector-curvature="0" class="st0" d="M651.6,261.5c-1.4,2.1-3.1,4.1-4.9,5.9
			c-7,7-15.3,10.8-24.9,11.3v-19.6c4.2-0.6,7.9-2.4,11.1-5.6c0.9-0.9,1.8-1.9,2.5-2.9L651.6,261.5z"/>
	</g>
</g>
</svg>
