<?xml version="1.0" encoding="utf-8"?>
<!-- Generator: Adobe Illustrator 27.4.1, SVG Export Plug-In . SVG Version: 6.00 Build 0)  -->
<svg version="1.1"
	 id="svg1354" xmlns:dc="http://purl.org/dc/elements/1.1/" xmlns:inkscape="http://www.inkscape.org/namespaces/inkscape" xmlns:rdf="http://www.w3.org/1999/02/22-rdf-syntax-ns#" xmlns:svg="http://www.w3.org/2000/svg" xmlns:cc="http://creativecommons.org/ns#" xmlns:sodipodi="http://sodipodi.sourceforge.net/DTD/sodipodi-0.dtd" inkscape:version="0.92.5 (2060ec1f9f, 2020-04-08)"
	 xmlns="http://www.w3.org/2000/svg" xmlns:xlink="http://www.w3.org/1999/xlink" x="0px" y="0px" viewBox="0 0 990 418"
	 style="enable-background:new 0 0 990 418;" xml:space="preserve">
<style type="text/css">
	.st0{fill:#141414;}
</style>
<sodipodi:namedview  bordercolor="#666666" borderopacity="1" gridtolerance="10" guidetolerance="10" id="namedview4" inkscape:current-layer="svg1354" inkscape:cx="620.89578" inkscape:cy="224.28062" inkscape:pageopacity="0" inkscape:pageshadow="2" inkscape:window-height="2065" inkscape:window-maximized="1" inkscape:window-width="3840" inkscape:window-x="0" inkscape:window-y="0" inkscape:zoom="1.2609628" objecttolerance="10" pagecolor="#ffffff" showgrid="false">
	</sodipodi:namedview>
<path id="path1363" inkscape:connector-curvature="0" class="st0" d="M163.5,416.6c-18.2-5-35.9-21.8-43.6-41.5
	c-5.2-13.2-24-79.3-89.8-316l-9.9-35.5l44.5-0.3c24.5-0.1,44.8,0.1,45.2,0.5c0.4,0.4,17.1,64.9,37,143.4l36.3,142.6l17.3-66.1
	c41-157,48-182.3,53.2-193.2c7-14.7,19.2-25.1,33.6-28.9c7.6-2,25.2-2,32.8,0c16,4.2,28.4,15.7,35.3,32.6
	c4.2,10.3,13.2,43.5,46.8,172.5c11.3,43.4,20.9,79.8,21.3,80.7c0.5,1.1,14.5-52.2,37.2-141.2l36.5-143h45.2
	c35.7,0,45.1,0.3,44.8,1.2c-0.2,0.7-9.9,35.2-21.4,76.8C510.6,299.6,491.4,366.3,486,378c-9.2,20-24.6,33.8-42.9,38.6
	c-7.7,2-24.3,2-31.9,0c-10.6-2.8-16.6-6.4-25.7-15.5c-7.1-7.1-9.3-10.2-13.2-18c-6.3-12.9-12.4-33.9-51.2-176.5
	c-9.1-33.6-16.9-61.7-17.2-62.5c-0.3-0.8-9.7,32-20.9,72.9c-24.6,89.9-37.6,136.4-41.6,149.1c-8.7,27.5-24.6,45-45.4,50.4
	C188.6,418.5,170.4,418.5,163.5,416.6L163.5,416.6z M631.8,278.6V142.1h42.5h42.5v136.5v136.5h-42.5h-42.5V278.6z M802.8,278.6
	V142.1h42.5h42.5v136.5v136.5h-42.5h-42.5V278.6z M919.8,401.6v-13.5h-5c-4.7,0-5-0.2-5-2.5v-2.5h13h13v2.5c0,2.3-0.3,2.5-5,2.5h-5
	v13.5v13.5h-3h-3V401.6z M937.8,399.1v-16h4.5h4.5l3,9.9c1.7,5.4,3,10.5,3,11.2c0,3.1,2-1.2,4.9-10.8l3.1-10.3h4.5h4.5v16v16h-3h-3
	l-0.1-11.3c-0.1-12.2,0-12.2-4.4,2.6c-2.6,8.8-2.6,8.8-5.8,8.5c-3.1-0.3-3.2-0.5-6.2-10.8l-3-10.5l-0.3,10.8l-0.3,10.8h-3h-3
	L937.8,399.1L937.8,399.1z M662.3,95c-19.3-3.9-35.2-20.4-38.5-39.8c-4-23.6,11.8-47.4,35.5-53.6c12.1-3.2,27.6-1.5,38.7,4.1
	c6.6,3.4,16.7,13,20.1,19.2c11.6,21.4,4.7,49.3-15.4,62.2C691.6,94.3,674.9,97.6,662.3,95L662.3,95z M833.3,95
	c-24.9-5.1-42.6-29.9-38.6-54.3C797.8,22,812,6.4,830.3,1.6c12.1-3.2,27.6-1.5,38.7,4.1c6.6,3.4,16,12.3,19.8,18.9
	c12,21.1,5.2,49.6-15,62.5C862.6,94.3,845.9,97.6,833.3,95z"/>
</svg>
