<?xml version="1.0" encoding="utf-8"?>
<!-- Generator: Adobe Illustrator 27.4.1, SVG Export Plug-In . SVG Version: 6.00 Build 0)  -->
<svg version="1.1" id="图层_1" xmlns="http://www.w3.org/2000/svg" xmlns:xlink="http://www.w3.org/1999/xlink" x="0px" y="0px"
	 viewBox="0 0 398 110.6" style="enable-background:new 0 0 398 110.6;" xml:space="preserve">
<style type="text/css">
	.st0{fill:#898D89;}
	.st1{fill:#1F9EBB;}
	.st2{fill:#141414;}
</style>
<g>
	<path class="st0" d="M378.9,1.1V0h8v1.1h-3.3V10h-1.3V1.1H378.9z M389.9,0l3.1,8.4l3.2-8.4h1.8v10h-1.3V1.7h0l-3.1,8.3h-1.1
		l-3.1-8.3h0V10H388V0H389.9L389.9,0z"/>
</g>
<g>
	<path class="st1" d="M300.7,38c0,25.4,30,21.8,30,4V0h-30V38z"/>
	<path class="st1" d="M259.3,64.7c0,12.5,8.6,20,21.3,20h72c10.7,0,19.4-7.4,19.4-18V14c0-6.4-4.7-13.3-10.7-13.3h-16.7V44
		c0,32.9-57.4,32.7-57.4,0.7V0h-12.7c-8.3,0-15.4,5.2-15.4,13.3L259.3,64.7z"/>
</g>
<g>
	<path class="st2" d="M159.6,12.6c0,6.8,5.8,12.6,13,12.6c7.6,0,13.5-5.6,13.5-12.6c0-7-5.9-12.6-13.5-12.6
		C165.4-0.1,159.6,5.5,159.6,12.6z M184.1,109.8V37.6h-22.3v72.2H184.1z M204.9,12.6c0,6.8,5.9,12.6,13.2,12.6
		c7.4,0,13.3-5.6,13.3-12.6c0-7-5.9-12.6-13.3-12.6C210.8-0.1,204.9,5.5,204.9,12.6z M229.3,109.8V37.6H207v72.2H229.3z M126.3,6.1
		l-19.5,76.6c0,0-14.9-57.5-17.5-65.8C87,8.7,81.9,5.2,74.9,5.2c-7.2,0-12.1,3.6-14.6,11.7C57.9,25.1,43,82.6,43,82.6L23.4,6.1H0
		c0,0,22.5,81.6,25.6,91.2c2.3,7.4,8.1,13.3,16.4,13.3c9.7,0,14.2-7,16.2-13.3C60.4,90.7,75,36.9,75,36.9s14.6,53.9,16.6,60.3
		c2.2,6.3,6.7,13.3,16.2,13.3c8.5,0,14-5.9,16.6-13.3c3-9.5,25.6-91.2,25.6-91.2S126.3,6.1,126.3,6.1z"/>
</g>
</svg>
