<?xml version="1.0" encoding="utf-8"?>
<!-- Generator: Adobe Illustrator 27.4.1, SVG Export Plug-In . SVG Version: 6.00 Build 0)  -->
<svg version="1.1"
	 id="svg8" xmlns:dc="http://purl.org/dc/elements/1.1/" xmlns:sodipodi="http://sodipodi.sourceforge.net/DTD/sodipodi-0.dtd" xmlns:inkscape="http://www.inkscape.org/namespaces/inkscape" xmlns:svg="http://www.w3.org/2000/svg" xmlns:cc="http://creativecommons.org/ns#" xmlns:rdf="http://www.w3.org/1999/02/22-rdf-syntax-ns#"
	 xmlns="http://www.w3.org/2000/svg" xmlns:xlink="http://www.w3.org/1999/xlink" x="0px" y="0px" viewBox="0 0 420 132.7"
	 style="enable-background:new 0 0 420 132.7;" xml:space="preserve">
<style type="text/css">
	.st0{fill:#27272B;}
	.st1{font-family:'ArialMT';}
	.st2{font-size:5px;}
</style>
<sodipodi:namedview  bordercolor="#666666" borderopacity="1" gridtolerance="10" guidetolerance="10" id="namedview10" inkscape:current-layer="svg8" inkscape:cx="231.03149" inkscape:cy="119.42344" inkscape:pageopacity="0" inkscape:pageshadow="2" inkscape:window-height="2065" inkscape:window-maximized="1" inkscape:window-width="3840" inkscape:window-x="0" inkscape:window-y="0" inkscape:zoom="1.7762354" objecttolerance="10" pagecolor="#ffffff" showgrid="false">
	</sodipodi:namedview>
<g id="g824" transform="translate(-134.115,-2.3803711e-6)">
	<text id="text2" transform="matrix(1 0 0 1 428.15 129.717)" class="st0 st1 st2">I don’t like bugs!</text>
	<path id="path4" inkscape:connector-curvature="0" class="st0" d="M326,59.8L292.5,0H385L326,59.8z M307,8.5l20.9,37.2l36.7-37.2
		H307z M235.1,132.7H134.3l63.8-62.6L235.1,132.7z M155.2,124.2h65l-23.9-40.3L155.2,124.2z"/>
	<path id="path6" inkscape:connector-curvature="0" class="st0" d="M427.4,0L398,30.8h35.8l-52.6,93.4h-33.7L276,0H173.7l77,132.7
		h226.8L553.9,0H427.4z M255.7,124.2L188.5,8.5H271l66.5,115.7H255.7z M472.6,124.2h-81.7l57.3-101.9h-30.4L431,8.5h108.1
		L472.6,124.2z"/>
</g>
</svg>
