<?xml version="1.0" encoding="utf-8"?>
<!-- Generator: Adobe Illustrator 27.4.1, SVG Export Plug-In . SVG Version: 6.00 Build 0)  -->
<svg version="1.1"
	 id="svg9136" xmlns:inkscape="http://www.inkscape.org/namespaces/inkscape" xmlns:sodipodi="http://sodipodi.sourceforge.net/DTD/sodipodi-0.dtd" xmlns:rdf="http://www.w3.org/1999/02/22-rdf-syntax-ns#" xmlns:cc="http://creativecommons.org/ns#" xmlns:dc="http://purl.org/dc/elements/1.1/" xmlns:svg="http://www.w3.org/2000/svg" inkscape:version="0.92.5 (2060ec1f9f, 2020-04-08)"
	 xmlns="http://www.w3.org/2000/svg" xmlns:xlink="http://www.w3.org/1999/xlink" x="0px" y="0px" viewBox="0 0 313 50"
	 style="enable-background:new 0 0 313 50;" xml:space="preserve">
<style type="text/css">
	.st0{fill:#C8C8DD;}
</style>
<sodipodi:namedview  bordercolor="#666666" borderopacity="1.0" fit-margin-bottom="0" fit-margin-left="0" fit-margin-right="0" fit-margin-top="0" id="base" inkscape:current-layer="text4594" inkscape:cx="107.56739" inkscape:cy="44.090566" inkscape:document-units="px" inkscape:pageopacity="0.0" inkscape:pageshadow="2" inkscape:window-height="2065" inkscape:window-maximized="1" inkscape:window-width="3840" inkscape:window-x="0" inkscape:window-y="0" inkscape:zoom="6.158552" pagecolor="#ffffff" showgrid="false" units="px">
	</sodipodi:namedview>
<g id="layer1" transform="translate(-15.007203,-270.86863)" inkscape:groupmode="layer" inkscape:label="Layer 1">
	<g id="text4594">
		<g id="g190" transform="matrix(0.5355721,0,0,0.5355721,4.3094881,199.28085)">
			<path id="path186" inkscape:connector-curvature="0" class="st0" d="M604.3,133.7h-1.5l-1.8,5.7c-0.3,0.4-0.4,0.8-0.4,1.2
				c-0.2-0.3-0.3-0.7-0.4-1l-2-5.8h-1.5v8.1h0.9v-6.9l2.4,6.9h0.9l2.4-6.7v6.7h1L604.3,133.7L604.3,133.7z M592.9,134.7h2.5v-1h-6.3
				v1h2.7v7h1V134.7z M555.9,133.7l-45.1,36.5l-44.9-36.5h-25.4l57.8,46.7L440.6,227h25.4l44.9-36.7l45.1,36.7H581l-57.5-46.7
				l57.5-46.7H555.9z M433.1,180.4c0-20.8-5.4-36.2-15.9-46.7H325c-10.9,10.4-16.3,25.8-16.3,46.7c0,20.8,5.4,36.2,16.3,46.7h92.2
				C427.7,216.6,433.1,201,433.1,180.4z M417.7,180.4c0,7-1.6,14.3-4.5,21.8l-4.3,9.7h-75.7l-4.3-9.7c-3.2-7.5-4.5-14.7-4.5-21.8
				c0-11.1,2.9-21.5,8.8-31.3h75.7C414.7,158.8,417.7,169.3,417.7,180.4z M285.2,184.2v-7.7l6.8-3.6c-1.6-17.4-6.8-30.6-15.6-39.2
				h-92.2c-8.8,8.4-14.3,21.5-15.6,39h-14.9v15.4h14.9c1.4,17.4,6.8,30.4,15.6,39h92.2c8.8-8.8,14-21.8,15.6-39L285.2,184.2z
				 M267.9,149.1c4.3,7.3,7.1,15.2,8.4,23.6h-92.2c1.4-8.8,4.1-16.5,8.4-23.6H267.9z M276.3,188.1c-1.3,8.4-4.1,16.5-8.4,23.8h-75.4
				c-4.3-7-7-15-8.4-23.8H276.3z"/>
			<path id="path188" inkscape:connector-curvature="0" class="st0" d="M102.8,180.4l57.5-46.7H135l-44.9,36.5L45,133.7H20.1
				l57.3,46.7L20.1,227H45l45.1-36.7L135,227h25.4L102.8,180.4z"/>
		</g>
	</g>
</g>
</svg>
