<?xml version="1.0" encoding="utf-8"?>
<!-- Generator: Adobe Illustrator 27.4.1, SVG Export Plug-In . SVG Version: 6.00 Build 0)  -->
<svg version="1.1"
	 id="svg3003" xmlns:inkscape="http://www.inkscape.org/namespaces/inkscape" xmlns:sodipodi="http://sodipodi.sourceforge.net/DTD/sodipodi-0.dtd" xmlns:rdf="http://www.w3.org/1999/02/22-rdf-syntax-ns#" xmlns:cc="http://creativecommons.org/ns#" xmlns:dc="http://purl.org/dc/elements/1.1/" xmlns:svg="http://www.w3.org/2000/svg" inkscape:version="0.48.4 r9939"
	 xmlns="http://www.w3.org/2000/svg" xmlns:xlink="http://www.w3.org/1999/xlink" x="0px" y="0px" viewBox="0 0 167 36"
	 style="enable-background:new 0 0 167 36;" xml:space="preserve">
<style type="text/css">
	.st0{fill:#92C83E;}
	.st1{fill:#C8C8C8;}
	.st2{display:none;fill:#9D9FA2;}
	.st3{fill:#666666;}
	.st4{fill:url(#path3035_00000145019415900651366090000013134010288560359576_);}
	.st5{fill:url(#path3290_00000139270178788740191280000013127423496223789737_);}
	.st6{fill:#00A54D;}
	.st7{fill:url(#path3990_00000170263462602203716760000012015953288022140822_);}
	.st8{fill:url(#path3354_00000172418953349456487620000017613001917554736562_);}
	.st9{fill:url(#path3364_00000052103682167140308320000002487841783935574969_);}
	.st10{fill:#02A74D;}
	.st11{fill:url(#path4000_00000013190776724707687420000005665607257825460400_);}
	.st12{fill:url(#path3314_00000152235440426012154530000017865403041480029883_);}
	.st13{fill:url(#path3324_00000041290927225587700200000010599241665309206946_);}
	.st14{fill:url(#path3328_00000034791019567020570090000017419429864119103631_);}
	.st15{fill:url(#path3394_00000031914909127162612850000015829534626820954515_);}
	.st16{fill:url(#path3396_00000152250457714719983170000013710354524567923072_);}
	.st17{fill:url(#path3398_00000059270453877628004650000009663057012516617376_);}
	.st18{fill:url(#path4039_00000092436576074818851190000014884984737929308325_);}
	.st19{fill:url(#path3304_00000166671985940647755920000008499622477588571815_);}
	.st20{fill:url(#path3344_00000005970394240561467520000009438250583297326726_);}
</style>
<sodipodi:namedview  bordercolor="#666666" borderopacity="1" gridtolerance="10" guidetolerance="10" id="namedview3017" inkscape:current-layer="svg3003" inkscape:cx="83.5" inkscape:cy="18" inkscape:pageopacity="0" inkscape:pageshadow="2" inkscape:window-height="838" inkscape:window-maximized="1" inkscape:window-width="1600" inkscape:window-x="-8" inkscape:window-y="-8" inkscape:zoom="8.9820359" objecttolerance="10" pagecolor="#ffffff" showgrid="false">
	</sodipodi:namedview>
<path id="path3007" class="st0" d="M109.7,28.6l-6.4-8.8l-6.4,8.8h-2.7l7.7-10.6l-7.1-9.6h2.7l5.8,7.8l5.8-7.8h2.6l-7.1,9.6
	l7.8,10.6L109.7,28.6L109.7,28.6z M59.4,28.6L51.7,18l7.1-9.6h-2.7l-5.8,7.8l-5.8-7.8h-2.6L49,18l-7.8,10.6h2.7l6.4-8.7l6.4,8.7
	L59.4,28.6L59.4,28.6z M75.9,22.7c0,3.6-2.8,5.9-7.2,5.9l-8.2,0v-9.5h-4.2c0.3-0.5,1.1-1.6,1.5-2h2.7V8.4h8.2c6.1,0,6.6,4.2,6.6,5.5
	c0,1.7-1,3.2-2.4,4c0.4,0.2,0.9,0.5,1.3,0.8C75.3,19.7,75.9,21.1,75.9,22.7 M62.8,17.1h5.9c2.7,0,4.3-1.3,4.3-3.4
	c0-2.8-2.7-3.2-4.3-3.2h-5.9C62.8,10.5,62.8,17.1,62.8,17.1z M73.7,22.6c0-2.9-2.7-3.5-4.9-3.5h-5.9v7.3h5.9
	C70.6,26.5,73.7,26,73.7,22.6 M96.2,18.5c0,6.2-3.9,10.5-9.6,10.5c-5.7,0-9.6-4.3-9.6-10.5c0-6.2,4-10.5,9.6-10.5
	C92.2,7.9,96.2,12.3,96.2,18.5 M93.9,18.5c0-5-3-8.4-7.3-8.4c-4.3,0-7.3,3.5-7.3,8.4s3,8.4,7.3,8.4C90.9,26.9,93.9,23.4,93.9,18.5"
	/>
<path id="path3009" class="st1" d="M156.6,7.9c-4.8,0-7.5,3.9-7.5,10.6c0,6.7,2.8,10.6,7.5,10.6c2.7,0,4.8-1.2,6-3.5
	c1.2-2.2,1.5-5.1,1.5-7C164.1,15.3,163.4,7.9,156.6,7.9 M156.6,27.3c-1.4,0-2.5-0.4-3.4-1.3c-1.9-1.9-2.2-5.5-2.2-7.5
	c0-2.6,0.5-8.8,5.6-8.8c5,0,5.6,6.1,5.6,8.8C162.2,21.1,161.6,27.3,156.6,27.3 M140.4,14.9c-2.2,0-4.2,1.1-5.4,2.8
	c0.3-3.8,1.5-8,5.6-8c2.3,0,4.1,1.5,4.5,3.9l0.1,0.4h1.9l-0.1-0.5c-0.4-3.4-2.8-5.6-6.4-5.6c-6.3,0-7.7,6.3-7.7,11.5
	c0,6.3,2.6,9.6,7.4,9.6c4,0,7-3,7-7C147.4,17.9,144.4,14.9,140.4,14.9 M140.4,27.3c-2.9,0-5.1-2.3-5.1-5.2c0-3,2.2-5.3,5.1-5.3
	c1.3,0,2.5,0.5,3.5,1.4c1,1,1.6,2.4,1.6,3.9C145.4,25,143.2,27.3,140.4,27.3 M131.5,22.8c0,3.8-2.8,6.2-7.1,6.2
	c-2.4,0-4.3-0.7-5.5-2c-1.2-1.3-1.8-3.1-1.7-5.2l0-0.4h2l0,0.5c-0.1,1.6,0.4,3,1.3,4c0.9,1,2.3,1.5,4,1.5c2.6,0,5.2-1.5,5.2-4.4
	c0-1.2-0.4-2.1-1.1-2.8c-0.9-0.8-2.3-1.2-4.1-1.2h-1.4c0-0.5,0-1.4,0-1.9c0.5,0,1,0,1.4,0c1,0,2.8-0.2,3.8-1.2
	c0.6-0.6,0.9-1.4,0.9-2.4c0-2.3-2.4-3.6-4.7-3.6c-2.3,0-4.1,1.5-4.5,3.9l-0.1,0.4h-1.9l0.1-0.5c0.4-3.4,2.9-5.6,6.4-5.6
	c2.2,0,4.1,0.7,5.3,1.9c0.9,0.9,1.4,2.1,1.4,3.5c0,2-1.1,3.7-2.8,4.5C130.2,18.6,131.5,20.4,131.5,22.8"/>
<path id="path3011" class="st1" d="M166,26.4c0,0.4-0.1,0.7-0.4,1c-0.3,0.3-0.6,0.4-1,0.4c-0.4,0-0.7-0.1-1-0.4
	c-0.3-0.3-0.4-0.6-0.4-1c0-0.4,0.1-0.7,0.4-1c0.3-0.3,0.6-0.4,1-0.4c0.4,0,0.7,0.1,0.9,0.4C165.8,25.6,166,26,166,26.4 M165.8,26.4
	c0-0.3-0.1-0.6-0.3-0.9c-0.2-0.2-0.5-0.3-0.8-0.3c-0.3,0-0.6,0.1-0.9,0.3c-0.2,0.2-0.3,0.5-0.3,0.9c0,0.3,0.1,0.6,0.3,0.9
	c0.2,0.2,0.5,0.3,0.8,0.3c0.3,0,0.6-0.1,0.8-0.3C165.7,27,165.8,26.7,165.8,26.4 M165.3,27.2H165l-0.2-0.4c-0.1-0.2-0.2-0.3-0.3-0.3
	h-0.2v0.7h-0.2v-1.7h0.5c0.2,0,0.4,0,0.5,0.1c0.1,0.1,0.1,0.2,0.1,0.3c0,0.1,0,0.2-0.1,0.3c-0.1,0.1-0.2,0.1-0.3,0.2v0
	c0.1,0,0.2,0.1,0.3,0.3L165.3,27.2L165.3,27.2z M165,26c0-0.1,0-0.2-0.1-0.2c-0.1-0.1-0.2-0.1-0.3-0.1h-0.2v0.6h0.3
	C164.8,26.3,165,26.2,165,26"/>
<path id="path3015" class="st2" d="M165.8,26.5c0,0.4-0.1,0.7-0.4,1c-0.3,0.3-0.6,0.4-1,0.4c-0.4,0-0.7-0.1-1-0.4
	c-0.3-0.3-0.4-0.6-0.4-1c0-0.4,0.1-0.7,0.4-1c0.3-0.3,0.6-0.4,1-0.4c0.4,0,0.7,0.1,0.9,0.4C165.7,25.8,165.8,26.2,165.8,26.5
	 M165.7,26.6c0-0.3-0.1-0.6-0.3-0.9c-0.2-0.2-0.5-0.3-0.8-0.3c-0.3,0-0.6,0.1-0.9,0.3c-0.2,0.2-0.3,0.5-0.3,0.9
	c0,0.3,0.1,0.6,0.3,0.9c0.2,0.2,0.5,0.3,0.8,0.3c0.3,0,0.6-0.1,0.8-0.3C165.6,27.2,165.7,26.9,165.7,26.6 M165.1,27.4h-0.3l-0.2-0.4
	c-0.1-0.2-0.2-0.3-0.3-0.3h-0.2v0.7H164v-1.7h0.5c0.2,0,0.4,0,0.5,0.1c0.1,0.1,0.1,0.2,0.1,0.3c0,0.1,0,0.2-0.1,0.3
	c-0.1,0.1-0.2,0.1-0.3,0.2v0c0.1,0,0.2,0.1,0.3,0.3L165.1,27.4L165.1,27.4z M164.8,26.2c0-0.1,0-0.2-0.1-0.2
	c-0.1-0.1-0.2-0.1-0.3-0.1h-0.2v0.6h0.3C164.7,26.5,164.8,26.4,164.8,26.2"/>
<g id="g4160" transform="translate(-8.5927588,36.998558)">
	<g id="g3489">
		<g id="g3484">
			
				<path id="path3033" sodipodi:cx="23.333334" sodipodi:cy="17.391666" sodipodi:rx="14.35" sodipodi:ry="14.758333" sodipodi:type="arc" class="st3" d="
				M45.9-18.6c0,9.2-7.6,16.7-16.9,16.7S12.2-9.4,12.2-18.6s7.6-16.7,16.9-16.7S45.9-27.8,45.9-18.6z"/>
			
				<radialGradient id="path3035_00000087391879536269497760000003913671948574050214_" cx="11.1832" cy="503.3243" r="14.35" gradientTransform="matrix(0 2.086 1.8523 0 -905.3217 -45.4759)" gradientUnits="userSpaceOnUse">
				<stop  offset="0" style="stop-color:#FFFFFF"/>
				<stop  offset="1" style="stop-color:#FFFFFF;stop-opacity:0"/>
			</radialGradient>
			
				<path id="path3035" sodipodi:cx="23.333334" sodipodi:cy="17.391666" sodipodi:rx="14.35" sodipodi:ry="14.758333" sodipodi:type="arc" style="fill:url(#path3035_00000087391879536269497760000003913671948574050214_);" d="
				M45.9-18.6c0,9.2-7.6,16.7-16.9,16.7S12.2-9.4,12.2-18.6s7.6-16.7,16.9-16.7S45.9-27.8,45.9-18.6z"/>
			
				<radialGradient id="path3290_00000078743455851169629060000002951280329646436504_" cx="127.2206" cy="572.0191" r="14.35" gradientTransform="matrix(0 1.3025 1.1566 0 -634.5991 -187.8526)" gradientUnits="userSpaceOnUse">
				<stop  offset="0" style="stop-color:#FFFFFF"/>
				<stop  offset="1" style="stop-color:#FFFFFF;stop-opacity:0"/>
			</radialGradient>
			
				<path id="path3290" sodipodi:cx="23.333334" sodipodi:cy="17.391666" sodipodi:rx="14.35" sodipodi:ry="14.758333" sodipodi:type="arc" style="fill:url(#path3290_00000078743455851169629060000002951280329646436504_);" d="
				M45.9-18.6c0,9.2-7.6,16.7-16.9,16.7S12.2-9.4,12.2-18.6s7.6-16.7,16.9-16.7S45.9-27.8,45.9-18.6z"/>
		</g>
		<g id="g4126" transform="translate(-4.7343777,9.5517766)">
			<g id="g4010" transform="matrix(1.0075011,0,0,1.0008426,-0.23709798,0.02715301)">
				<g id="g3951">
				</g>
			</g>
			<g id="g3427" transform="translate(4.7499999,-9.4999998)">
				<g id="g3378" transform="matrix(1.0075011,0,0,1.0008426,-0.237093,0.0271527)">
					<g id="g3917" transform="translate(1.334375,-34.927083)">
						<path id="path3900" inkscape:connector-curvature="0" sodipodi:nodetypes="ccccc" class="st6" d="M23.5,9
							c-1.8,2.3-9.6,11.4-8.9,17.6c0.5,0.6,1,1.2,1.6,1.7c-0.1-4.7,5.5-9.8,9.8-13.7L23.5,9z"/>
					</g>
					<g id="g3988" transform="translate(1.334375,-34.927083)">
						
							<linearGradient id="path3990_00000161589503946794472640000007548671111793821867_" gradientUnits="userSpaceOnUse" x1="19.2194" y1="12.1254" x2="15.264" y2="16.7658" gradientTransform="matrix(1.0075 0 0 -1.0008 2.3404 33.0353)">
							<stop  offset="0" style="stop-color:#97CA43"/>
							<stop  offset="1" style="stop-color:#97CA43;stop-opacity:0"/>
						</linearGradient>
						
							<path id="path3990" inkscape:connector-curvature="0" sodipodi:nodetypes="ccccc" style="fill:url(#path3990_00000161589503946794472640000007548671111793821867_);" d="
							M23.5,9c-1.8,2.3-9.6,11.4-8.9,17.6c0.5,0.6,1,1.2,1.6,1.7c-0.1-4.7,5.5-9.8,9.8-13.7L23.5,9z"/>
						
							<linearGradient id="path3354_00000094590151893592332380000006562672270884475046_" gradientUnits="userSpaceOnUse" x1="14.6206" y1="15.8955" x2="16.5507" y2="14.8357" gradientTransform="matrix(1.0075 0 0 -1.0008 2.3404 33.0353)">
							<stop  offset="0" style="stop-color:#458F41"/>
							<stop  offset="1" style="stop-color:#458F41;stop-opacity:0"/>
						</linearGradient>
						
							<path id="path3354" inkscape:connector-curvature="0" sodipodi:nodetypes="ccccc" style="fill:url(#path3354_00000094590151893592332380000006562672270884475046_);" d="
							M23.5,9c-1.8,2.3-9.6,11.4-8.9,17.6c0.5,0.6,1,1.2,1.6,1.7c-0.1-4.7,5.5-9.8,9.8-13.7L23.5,9z"/>
						
							<linearGradient id="path3364_00000121240563184229238070000007541165891477793668_" gradientUnits="userSpaceOnUse" x1="21.9537" y1="12.5015" x2="16.953" y2="14.5327" gradientTransform="matrix(1.0075 0 0 -1.0008 2.3404 33.0353)">
							<stop  offset="0" style="stop-color:#E5EDAE"/>
							<stop  offset="1" style="stop-color:#E5EDAE;stop-opacity:0"/>
						</linearGradient>
						
							<path id="path3364" inkscape:connector-curvature="0" sodipodi:nodetypes="ccccc" style="fill:url(#path3364_00000121240563184229238070000007541165891477793668_);" d="
							M23.5,9c-1.8,2.3-9.6,11.4-8.9,17.6c0.5,0.6,1,1.2,1.6,1.7c-0.1-4.7,5.5-9.8,9.8-13.7L23.5,9z"/>
					</g>
				</g>
				<g id="g3888" transform="matrix(1.0075011,0,0,1.0008426,0.968067,-34.89797)">
					<g id="g3876">
						<path id="path3089" inkscape:connector-curvature="0" sodipodi:nodetypes="cccccccc" class="st10" d="M19.1,2.1
							c-1,0.6-1.9,1.3-2.7,2c2.7,0.5,5.3,2.9,6.8,4.8c1.3,2,2,3.8,2.9,5.7c0.6-0.5,1.2-1,1.9-1.6l0-8.2C26,3.6,22.7,2,19.1,2.1
							C19.1,2.1,19.1,2.1,19.1,2.1z"/>
						
							<linearGradient id="path4000_00000089550478625622994460000016100252900187365551_" gradientUnits="userSpaceOnUse" x1="19.3293" y1="23.2651" x2="22.9532" y2="31.3084" gradientTransform="matrix(1.0075 0 0 -1.0008 2.2011 33.0039)">
							<stop  offset="0" style="stop-color:#97CA43"/>
							<stop  offset="1" style="stop-color:#97CA43;stop-opacity:0"/>
						</linearGradient>
						
							<path id="path4000" inkscape:connector-curvature="0" sodipodi:nodetypes="cccccccc" style="fill:url(#path4000_00000089550478625622994460000016100252900187365551_);" d="
							M19.1,2.1c-1,0.6-1.9,1.3-2.7,2c2.7,0.5,5.3,2.9,6.8,4.8c1.3,2,2,3.8,2.9,5.7c0.6-0.5,1.2-1,1.9-1.6l0-8.2
							C26,3.6,22.7,2,19.1,2.1C19.1,2.1,19.1,2.1,19.1,2.1z"/>
						
							<linearGradient id="path3314_00000181075691425749457320000007156401461606737580_" gradientUnits="userSpaceOnUse" x1="20.349" y1="30.6062" x2="20.1736" y2="28.4867" gradientTransform="matrix(1.0075 0 0 -1.0008 2.2011 33.0039)">
							<stop  offset="0" style="stop-color:#459743"/>
							<stop  offset="1" style="stop-color:#459743;stop-opacity:0"/>
						</linearGradient>
						
							<path id="path3314" inkscape:connector-curvature="0" sodipodi:nodetypes="cccccccc" style="fill:url(#path3314_00000181075691425749457320000007156401461606737580_);" d="
							M19.1,2.1c-1,0.6-1.9,1.3-2.7,2c2.7,0.5,5.3,2.9,6.8,4.8c1.3,2,2,3.8,2.9,5.7c0.6-0.5,1.2-1,1.9-1.6l0-8.2
							C26,3.6,22.7,2,19.1,2.1C19.1,2.1,19.1,2.1,19.1,2.1z"/>
						
							<linearGradient id="path3324_00000156556266826756481550000004246516813822080667_" gradientUnits="userSpaceOnUse" x1="23.2534" y1="29.594" x2="22.2006" y2="28.0043" gradientTransform="matrix(1.0075 0 0 -1.0008 2.2011 33.0039)">
							<stop  offset="0" style="stop-color:#459743"/>
							<stop  offset="1" style="stop-color:#459743;stop-opacity:0"/>
						</linearGradient>
						
							<path id="path3324" inkscape:connector-curvature="0" sodipodi:nodetypes="cccccccc" style="fill:url(#path3324_00000156556266826756481550000004246516813822080667_);" d="
							M19.1,2.1c-1,0.6-1.9,1.3-2.7,2c2.7,0.5,5.3,2.9,6.8,4.8c1.3,2,2,3.8,2.9,5.7c0.6-0.5,1.2-1,1.9-1.6l0-8.2
							C26,3.6,22.7,2,19.1,2.1C19.1,2.1,19.1,2.1,19.1,2.1z"/>
						
							<linearGradient id="path3328_00000060005812714581926580000013201009651576091277_" gradientUnits="userSpaceOnUse" x1="18.2846" y1="21.5566" x2="20.5656" y2="25.7074" gradientTransform="matrix(1.0075 0 0 -1.0008 2.2011 33.0039)">
							<stop  offset="0" style="stop-color:#E6EDAE"/>
							<stop  offset="1" style="stop-color:#E6EDAE;stop-opacity:0"/>
						</linearGradient>
						
							<path id="path3328" inkscape:connector-curvature="0" sodipodi:nodetypes="cccccccc" style="fill:url(#path3328_00000060005812714581926580000013201009651576091277_);" d="
							M19.1,2.1c-1,0.6-1.9,1.3-2.7,2c2.7,0.5,5.3,2.9,6.8,4.8c1.3,2,2,3.8,2.9,5.7c0.6-0.5,1.2-1,1.9-1.6l0-8.2
							C26,3.6,22.7,2,19.1,2.1C19.1,2.1,19.1,2.1,19.1,2.1z"/>
					</g>
				</g>
				<g id="g3386" transform="matrix(-1.0075011,0,0,1.0008426,63.322778,0.0271527)">
					<g id="g3388" transform="translate(1.334375,-34.927083)">
						<path id="path3390" inkscape:connector-curvature="0" sodipodi:nodetypes="ccccc" class="st6" d="M28.4,9
							c-1.8,2.3-9.6,11.4-8.9,17.6c0.5,0.6,1,1.2,1.6,1.7c-0.1-4.7,5.5-9.8,9.8-13.7L28.4,9z"/>
					</g>
					<g id="g3392" transform="translate(1.334375,-34.927083)">
						
							<linearGradient id="path3394_00000118358130132741442580000009071319929458424711_" gradientUnits="userSpaceOnUse" x1="457.9781" y1="12.1254" x2="454.0228" y2="16.7658" gradientTransform="matrix(-1.0075 0 0 -1.0008 488.025 33.0353)">
							<stop  offset="0" style="stop-color:#97CA43"/>
							<stop  offset="1" style="stop-color:#97CA43;stop-opacity:0"/>
						</linearGradient>
						
							<path id="path3394" inkscape:connector-curvature="0" sodipodi:nodetypes="ccccc" style="fill:url(#path3394_00000118358130132741442580000009071319929458424711_);" d="
							M28.4,9c-1.8,2.3-9.6,11.4-8.9,17.6c0.5,0.6,1,1.2,1.6,1.7c-0.1-4.7,5.5-9.8,9.8-13.7L28.4,9z"/>
						
							<linearGradient id="path3396_00000061449330219775084750000009412345484458473615_" gradientUnits="userSpaceOnUse" x1="462.5769" y1="15.8955" x2="464.507" y2="14.8357" gradientTransform="matrix(-1.0075 0 0 -1.0008 488.025 33.0353)">
							<stop  offset="0" style="stop-color:#458F41"/>
							<stop  offset="1" style="stop-color:#458F41;stop-opacity:0"/>
						</linearGradient>
						
							<path id="path3396" inkscape:connector-curvature="0" sodipodi:nodetypes="ccccc" style="fill:url(#path3396_00000061449330219775084750000009412345484458473615_);" d="
							M28.4,9c-1.8,2.3-9.6,11.4-8.9,17.6c0.5,0.6,1,1.2,1.6,1.7c-0.1-4.7,5.5-9.8,9.8-13.7L28.4,9z"/>
						
							<linearGradient id="path3398_00000084503488638649810850000003650209683397950881_" gradientUnits="userSpaceOnUse" x1="455.2439" y1="12.5015" x2="450.2433" y2="14.5327" gradientTransform="matrix(-1.0075 0 0 -1.0008 488.025 33.0353)">
							<stop  offset="0" style="stop-color:#E5EDAE"/>
							<stop  offset="1" style="stop-color:#E5EDAE;stop-opacity:0"/>
						</linearGradient>
						
							<path id="path3398" inkscape:connector-curvature="0" sodipodi:nodetypes="ccccc" style="fill:url(#path3398_00000084503488638649810850000003650209683397950881_);" d="
							M28.4,9c-1.8,2.3-9.6,11.4-8.9,17.6c0.5,0.6,1,1.2,1.6,1.7c-0.1-4.7,5.5-9.8,9.8-13.7L28.4,9z"/>
					</g>
				</g>
				<g id="g4021" transform="matrix(-1.0041673,0,0,1.0016853,63.252358,0.05430602)">
					<g id="g4023">
						<g id="g4033" transform="translate(1.196189,-34.89572)">
							<g id="g4035">
								<path id="path4037" inkscape:connector-curvature="0" sodipodi:nodetypes="cccccccc" class="st10" d="M24,2.1
									c-1,0.6-1.9,1.3-2.7,2C24,4.6,26.7,7,28.1,8.9c1.3,2,2,3.8,2.9,5.7c0.6-0.5,1.2-1,1.9-1.6l0-8.2C30.9,3.6,27.6,2,24,2.1
									C24,2.1,24,2.1,24,2.1z"/>
								
									<linearGradient id="path4039_00000151524911711695200720000012179704454802846644_" gradientUnits="userSpaceOnUse" x1="460.2621" y1="23.94" x2="463.3578" y2="28.9832" gradientTransform="matrix(-1.0042 0 0 -1.0017 488.803 33.3449)">
									<stop  offset="0" style="stop-color:#97CA43"/>
									<stop  offset="1" style="stop-color:#97CA43;stop-opacity:0"/>
								</linearGradient>
								
									<path id="path4039" inkscape:connector-curvature="0" sodipodi:nodetypes="cccccccc" style="fill:url(#path4039_00000151524911711695200720000012179704454802846644_);" d="
									M24,2.1c-1,0.6-1.9,1.3-2.7,2C24,4.6,26.7,7,28.1,8.9c1.3,2,2,3.8,2.9,5.7c0.6-0.5,1.2-1,1.9-1.6l0-8.2
									C30.9,3.6,27.6,2,24,2.1C24,2.1,24,2.1,24,2.1z"/>
								
									<linearGradient id="path3304_00000029034883203296414950000003122293566864516531_" gradientUnits="userSpaceOnUse" x1="456.6059" y1="29.8663" x2="455.8138" y2="28.5868" gradientTransform="matrix(-1.0042 0 0 -1.0017 488.803 33.3449)">
									<stop  offset="0" style="stop-color:#46873F"/>
									<stop  offset="1" style="stop-color:#46873F;stop-opacity:0"/>
								</linearGradient>
								
									<path id="path3304" inkscape:connector-curvature="0" sodipodi:nodetypes="cccccccc" style="fill:url(#path3304_00000029034883203296414950000003122293566864516531_);" d="
									M24,2.1c-1,0.6-1.9,1.3-2.7,2C24,4.6,26.7,7,28.1,8.9c1.3,2,2,3.8,2.9,5.7c0.6-0.5,1.2-1,1.9-1.6l0-8.2
									C30.9,3.6,27.6,2,24,2.1C24,2.1,24,2.1,24,2.1z"/>
								
									<linearGradient id="path3344_00000156581064478818902330000014137412327946899612_" gradientUnits="userSpaceOnUse" x1="461.1008" y1="21.4425" x2="462.9492" y2="26.031" gradientTransform="matrix(-1.0042 0 0 -1.0017 488.803 33.3449)">
									<stop  offset="0" style="stop-color:#E6EEAD"/>
									<stop  offset="1" style="stop-color:#E6EEAD;stop-opacity:0"/>
								</linearGradient>
								
									<path id="path3344" inkscape:connector-curvature="0" sodipodi:nodetypes="cccccccc" style="fill:url(#path3344_00000156581064478818902330000014137412327946899612_);" d="
									M24,2.1c-1,0.6-1.9,1.3-2.7,2C24,4.6,26.7,7,28.1,8.9c1.3,2,2,3.8,2.9,5.7c0.6-0.5,1.2-1,1.9-1.6l0-8.2
									C30.9,3.6,27.6,2,24,2.1C24,2.1,24,2.1,24,2.1z"/>
							</g>
						</g>
					</g>
				</g>
			</g>
		</g>
	</g>
</g>
<script  xmlns=""></script>
</svg>
